<?xml version="1.0" standalone="no"?>
<!DOCTYPE svg PUBLIC "-//W3C//DTD SVG 20010904//EN"
 "http://www.w3.org/TR/2001/REC-SVG-20010904/DTD/svg10.dtd">
<svg version="1.0" xmlns="http://www.w3.org/2000/svg"
 width="1080.000000pt" height="1080.000000pt" viewBox="0 0 1080.000000 1080.000000"
 preserveAspectRatio="xMidYMid meet">
<metadata>
Created by potrace 1.14, written by Peter Selinger 2001-2017
</metadata>
<g transform="translate(0.000000,1080.000000) scale(0.100000,-0.100000)"
fill="#000000" stroke="none">
<path d="M4795 10130 c6 -10 4 -12 -10 -6 -16 6 -16 4 -4 -11 12 -15 12 -16
-3 -10 -20 7 -34 -8 -17 -19 8 -5 9 -3 4 6 -5 9 -4 11 3 6 15 -9 15 -11 -5
-27 -14 -12 -16 -12 -9 1 4 9 2 8 -7 -2 -8 -10 -18 -14 -22 -10 -5 4 -5 1 -1
-6 4 -7 11 -10 15 -8 4 3 7 -5 8 -17 0 -12 -1 -16 -4 -9 -6 15 -33 16 -33 1 0
-5 5 -7 10 -4 10 6 9 -22 -1 -40 -4 -5 -5 -18 -4 -28 2 -9 0 -15 -5 -12 -4 3
-16 -8 -25 -23 l-18 -27 24 20 c17 15 20 15 10 3 -7 -10 -11 -24 -8 -31 3 -8
-1 -14 -9 -14 -7 0 -10 5 -7 10 3 6 1 7 -6 3 -6 -4 -9 -11 -6 -16 3 -5 1 -11
-4 -14 -5 -3 -8 -23 -7 -45 1 -27 -3 -37 -11 -34 -7 3 -13 1 -13 -5 0 -6 6
-13 13 -16 6 -4 2 -4 -11 -2 -19 4 -21 2 -11 -10 9 -11 8 -14 -5 -14 -16 0
-16 -1 -2 -16 20 -20 20 -25 1 -17 -12 4 -15 0 -11 -21 2 -14 0 -29 -6 -32 -7
-5 -8 -2 -3 6 6 9 4 11 -5 5 -10 -6 -10 -11 4 -20 15 -12 15 -13 -1 -20 -10
-5 -22 -7 -28 -6 -5 1 -2 -6 8 -17 9 -10 17 -23 17 -28 0 -5 -5 -2 -10 6 -8
13 -11 13 -22 1 -11 -11 -11 -13 1 -6 9 5 12 3 9 -6 -3 -8 -11 -13 -18 -11
-11 3 -11 0 0 -12 10 -13 10 -16 0 -16 -10 0 -10 -3 0 -16 11 -12 11 -15 -1
-12 -8 2 -18 8 -22 13 -5 6 -6 2 -3 -9 4 -11 1 -23 -6 -28 -8 -6 -4 -7 12 -2
l25 6 -27 -21 c-24 -19 -26 -26 -17 -43 9 -16 8 -19 -2 -13 -9 6 -11 3 -6 -8
4 -10 0 -20 -11 -26 -9 -6 -13 -11 -8 -11 5 0 3 -7 -5 -16 -10 -13 -10 -17 2
-25 11 -7 8 -9 -11 -10 -14 0 -19 -3 -13 -6 10 -3 10 -10 2 -24 -5 -11 -7 -25
-3 -32 6 -9 5 -9 -7 0 -12 10 -15 8 -16 -8 -1 -12 3 -17 9 -13 7 5 8 2 4 -5
-5 -7 -14 -10 -21 -7 -7 2 -16 -1 -19 -9 -3 -10 0 -12 12 -9 14 5 15 4 2 -4
-10 -8 -18 -8 -27 0 -10 8 -12 7 -7 -6 4 -10 1 -16 -7 -17 -8 0 -23 -3 -34 -5
-11 -3 -25 -6 -32 -6 -7 -1 -9 -6 -6 -11 4 -6 0 -8 -10 -4 -9 3 -19 1 -23 -5
-5 -7 -2 -8 6 -3 8 5 11 4 7 -2 -4 -6 -19 -8 -33 -5 -17 3 -25 1 -21 -6 5 -6
-6 -9 -27 -8 -27 1 -33 -2 -31 -16 5 -22 1 -22 -21 0 -17 16 -17 16 -11 0 7
-20 -9 -35 -16 -16 -4 8 -6 7 -6 -4 -1 -9 -6 -20 -13 -24 -7 -4 -8 -3 -4 4 4
7 2 12 -3 12 -10 0 -15 -14 -12 -32 0 -5 -4 -8 -10 -8 -6 0 -9 6 -6 13 3 8 -1
14 -9 14 -8 0 -13 -6 -10 -13 3 -8 0 -16 -6 -20 -6 -4 -9 -3 -6 2 3 5 -1 16
-10 24 -14 13 -15 12 -9 -3 3 -9 2 -19 -3 -22 -6 -4 -10 -1 -10 5 0 7 -7 10
-15 6 -8 -3 -15 -1 -15 4 0 6 -5 10 -11 10 -5 0 -7 -5 -3 -11 4 -8 0 -8 -15 0
-11 7 -21 14 -21 17 0 3 6 2 13 -2 6 -4 4 1 -5 11 -14 15 -20 16 -33 5 -13
-11 -14 -10 -8 6 6 16 4 17 -9 6 -13 -10 -18 -9 -29 5 -13 17 -13 17 6 3 18
-14 19 -13 8 1 -7 9 -9 19 -5 24 4 4 -3 2 -15 -4 -23 -12 -29 -5 -24 23 1 5
-5 4 -13 -4 -13 -10 -19 -10 -31 0 -8 7 -15 18 -15 24 0 6 7 2 15 -8 8 -11 18
-16 22 -13 12 13 -30 36 -48 26 -12 -6 -19 -4 -23 7 -3 8 -10 12 -16 9 -5 -3
-10 -2 -10 4 0 5 6 12 13 15 6 3 0 3 -15 1 -23 -3 -28 0 -28 16 0 11 -6 19
-12 18 -31 -4 -40 2 -35 21 3 11 1 18 -4 14 -5 -3 -9 -13 -10 -22 0 -12 -3
-11 -9 5 -6 15 -15 21 -25 17 -11 -5 -14 -2 -8 12 4 11 3 15 -5 10 -6 -3 -18
4 -26 16 -9 12 -16 18 -16 12 0 -5 5 -15 11 -21 9 -9 6 -10 -10 -6 -13 3 -28
14 -34 24 -7 11 -15 19 -20 19 -4 0 -6 -4 -3 -8 3 -5 -2 -9 -10 -9 -10 0 -11
4 -4 11 12 12 13 29 1 21 -5 -3 -15 1 -23 8 -7 7 -20 12 -28 12 -8 -1 -26 7
-39 17 -13 10 -28 15 -34 11 -5 -3 -7 -2 -4 3 9 16 -9 37 -34 39 -13 1 -25 7
-27 13 -2 7 5 9 19 7 12 -2 18 -1 15 3 -7 7 -16 8 -72 11 -16 1 -23 5 -18 13
5 8 2 9 -12 3 -10 -4 -27 -7 -38 -7 -18 1 -18 1 0 -14 11 -9 14 -13 7 -9 -7 3
-21 -3 -32 -14 -11 -11 -23 -16 -27 -13 -5 4 -2 -1 5 -11 12 -15 12 -17 -5
-10 -17 6 -18 5 -4 -12 14 -17 14 -18 -9 -6 -19 11 -22 11 -16 0 6 -9 3 -11
-11 -6 -18 7 -18 6 -2 -7 24 -18 23 -29 -1 -17 -16 9 -18 8 -15 -12 2 -12 2
-16 -2 -9 -3 6 -10 12 -15 12 -6 0 -7 -4 -4 -10 3 -5 1 -10 -4 -10 -6 0 -11
-4 -11 -10 0 -5 8 -7 18 -4 14 5 14 4 2 -4 -10 -8 -19 -7 -29 1 -12 10 -13 9
-2 -12 7 -13 9 -21 3 -17 -5 3 -15 -1 -22 -9 -7 -8 -19 -15 -27 -15 -8 0 -11
-5 -7 -12 4 -7 3 -8 -5 -4 -14 9 -39 -15 -33 -33 3 -9 0 -11 -8 -6 -10 6 -12
3 -6 -10 6 -16 4 -16 -11 -4 -11 9 -14 10 -9 1 4 -7 1 -15 -9 -18 -13 -5 -13
-9 -3 -22 11 -13 10 -14 -8 -4 -17 9 -24 7 -38 -9 -9 -11 -14 -24 -11 -29 3
-5 0 -12 -6 -16 -8 -5 -9 -3 -4 6 6 9 4 11 -4 6 -7 -5 -10 -15 -6 -23 5 -14 3
-14 -12 -2 -11 9 -14 10 -9 2 4 -8 1 -13 -9 -13 -9 0 -13 -4 -10 -10 6 -9 -8
-14 -28 -11 -5 1 -6 -3 -2 -9 3 -6 10 -8 15 -5 5 3 11 1 14 -4 3 -4 -4 -8 -16
-7 -12 0 -23 -5 -26 -13 -3 -8 0 -11 7 -7 6 4 11 2 11 -3 0 -15 -13 -14 -29 2
-11 10 -12 9 -6 -2 6 -10 2 -12 -16 -6 -23 7 -24 7 -4 -9 l20 -15 -20 -2 c-11
-1 -23 -1 -28 0 -4 0 -6 -5 -5 -11 2 -7 -3 -12 -11 -10 -12 3 -12 1 0 -14 12
-15 12 -17 0 -9 -11 6 -13 4 -7 -10 6 -16 4 -16 -11 -4 -15 12 -16 12 -10 -4
4 -11 3 -16 -3 -12 -6 3 -20 -1 -32 -9 -12 -9 -18 -16 -12 -16 5 0 15 5 20 10
7 7 11 6 11 -4 0 -8 -4 -13 -9 -10 -4 3 -8 0 -8 -6 0 -6 -4 -9 -9 -5 -5 3 -12
-3 -16 -14 -3 -11 -13 -22 -23 -26 -14 -5 -14 -7 -2 -16 13 -9 13 -10 0 -8
-27 3 -41 -1 -36 -9 2 -4 0 -14 -6 -22 -8 -12 -9 -12 -4 3 8 24 -6 21 -22 -4
-10 -15 -10 -19 -1 -14 8 5 10 4 5 -3 -11 -18 -26 -14 -27 6 0 14 -2 14 -8 -3
-5 -12 -4 -23 3 -28 7 -5 2 -7 -11 -4 -15 3 -20 1 -16 -9 6 -17 -13 -19 -21
-1 -2 6 -4 3 -3 -8 2 -11 7 -27 12 -35 6 -10 2 -9 -12 3 -16 14 -22 15 -30 5
-6 -7 -9 -21 -8 -31 3 -13 0 -15 -9 -8 -9 8 -18 3 -34 -19 -12 -16 -22 -37
-22 -47 0 -13 -2 -15 -9 -5 -6 10 -11 9 -22 -4 -9 -12 -10 -15 -1 -10 7 4 12
2 12 -5 0 -6 -8 -9 -19 -6 -15 3 -19 0 -16 -14 3 -13 -1 -16 -12 -12 -12 5
-14 3 -8 -7 6 -10 4 -12 -8 -7 -11 4 -15 1 -12 -13 3 -13 -1 -17 -11 -13 -8 3
-14 -1 -14 -11 0 -9 -5 -16 -11 -16 -5 0 -7 6 -3 13 6 9 3 8 -8 -1 -10 -8 -14
-20 -11 -30 6 -14 4 -15 -9 -4 -13 10 -15 9 -14 -10 1 -14 -5 -23 -14 -23 -8
-1 -14 -7 -12 -14 2 -8 -3 -11 -12 -8 -9 4 -15 3 -15 -1 1 -4 0 -9 -1 -12 -7
-19 -7 -39 1 -34 5 3 7 9 4 14 -3 5 0 12 6 16 7 4 9 3 5 -4 -3 -6 -1 -14 5
-18 8 -5 4 -12 -11 -24 -20 -15 -20 -17 -3 -15 10 0 25 5 33 10 12 7 13 6 4
-6 -6 -8 -14 -24 -17 -37 -4 -19 -3 -21 9 -11 10 8 14 8 15 0 4 -32 6 -36 18
-33 7 1 10 -2 6 -8 -3 -6 -10 -8 -15 -5 -5 3 -12 1 -15 -5 -4 -6 -3 -10 2 -9
28 5 36 -2 17 -15 -21 -16 -1 -17 26 -2 11 6 10 4 -2 -9 -15 -16 -15 -20 -2
-29 8 -6 15 -25 17 -42 1 -23 6 -30 17 -26 13 5 13 4 0 -13 -8 -10 -10 -16 -4
-12 7 4 15 0 18 -9 4 -10 2 -13 -7 -8 -9 6 -9 5 0 -8 7 -8 9 -19 5 -23 -4 -5
-1 -5 6 -1 8 5 13 3 11 -5 -3 -25 2 -54 8 -41 10 24 22 12 13 -13 -8 -20 -6
-27 5 -31 8 -4 15 -10 15 -16 0 -5 -4 -6 -10 -3 -16 10 -11 -1 7 -16 11 -10
14 -10 9 -1 -4 6 -2 12 3 12 15 0 14 -13 -1 -29 -10 -11 -10 -13 0 -7 8 5 12
-1 12 -20 0 -21 3 -24 14 -15 11 9 12 6 8 -14 -2 -14 -9 -22 -15 -18 -6 3 -7
1 -3 -5 4 -7 17 -13 29 -13 17 -1 18 -2 5 -6 -14 -3 -15 -7 -5 -18 6 -7 15
-11 19 -8 5 2 4 -7 -2 -21 -10 -28 -2 -34 19 -13 11 10 11 8 0 -10 -12 -20
-11 -24 6 -37 11 -9 16 -16 11 -16 -5 0 -1 -10 10 -22 10 -12 13 -18 6 -14 -7
4 -12 1 -12 -9 0 -8 6 -18 13 -21 7 -2 14 -16 15 -30 1 -14 8 -32 16 -40 8 -8
13 -23 11 -34 -2 -11 1 -20 6 -20 6 0 7 -5 4 -10 -4 -6 -10 -8 -13 -6 -4 2 -7
-13 -6 -34 0 -22 -2 -37 -6 -35 -3 2 -12 0 -20 -6 -9 -5 -10 -9 -4 -9 7 0 15
-7 18 -16 3 -8 2 -13 -2 -10 -4 2 -14 1 -22 -5 -12 -7 -11 -9 5 -9 18 0 18 -2
-4 -13 -13 -6 -23 -16 -22 -21 2 -5 -3 -13 -11 -17 -10 -7 -10 -9 0 -9 6 0 12
-5 12 -12 0 -6 -3 -8 -7 -5 -7 7 -32 -22 -33 -38 0 -5 5 -3 10 5 7 10 10 11
10 2 0 -7 -7 -15 -16 -19 -9 -3 -14 -13 -11 -24 3 -11 -2 -23 -11 -28 -14 -8
-14 -12 -3 -25 12 -14 12 -16 -1 -11 -11 5 -14 -1 -13 -24 1 -17 -1 -28 -5
-26 -10 6 -37 -29 -32 -43 2 -7 -2 -11 -10 -10 -7 2 -12 -3 -10 -10 1 -8 -2
-11 -8 -7 -5 3 -10 -2 -11 -12 0 -11 -3 -13 -6 -5 -4 10 -8 10 -18 2 -10 -8
-20 -8 -33 -1 -14 7 -19 7 -19 -4 0 -8 5 -11 10 -8 6 3 7 1 3 -6 -4 -6 -13 -8
-19 -4 -25 15 -44 10 -40 -11 3 -14 2 -17 -4 -9 -11 16 -46 10 -51 -8 -3 -11
-2 -12 6 -1 8 11 10 11 15 -1 4 -10 0 -14 -11 -12 -9 1 -24 -3 -32 -9 -13 -9
-13 -9 -2 6 12 15 11 17 -7 15 -14 -1 -20 -6 -16 -15 2 -7 0 -10 -5 -7 -6 3
-10 0 -10 -7 0 -10 -3 -9 -11 2 -8 11 -12 12 -15 3 -4 -8 -13 -9 -28 -3 -16 6
-23 5 -23 -5 0 -7 7 -11 16 -8 14 4 14 3 1 -5 -10 -8 -19 -7 -29 1 -12 10 -14
9 -8 -8 7 -18 6 -19 -6 -3 -16 21 -28 14 -19 -10 5 -15 3 -14 -12 1 -16 15
-21 16 -35 4 -30 -24 -69 -37 -75 -24 -2 7 -5 5 -5 -5 -1 -9 -6 -20 -13 -24
-6 -4 -8 -3 -5 3 3 5 0 10 -7 10 -9 0 -12 -7 -8 -16 5 -14 3 -14 -11 -2 -12 9
-17 10 -17 2 0 -7 -5 -9 -12 -5 -8 5 -9 2 -5 -10 4 -10 3 -15 -4 -11 -5 4 -16
1 -24 -5 -8 -7 -16 -10 -16 -6 -1 3 -2 10 -3 15 0 5 -5 13 -10 18 -5 5 -6 3
-2 -4 4 -7 2 -13 -4 -13 -6 0 -9 -4 -6 -9 3 -5 -2 -15 -12 -22 -15 -12 -16
-12 -4 2 18 23 -11 34 -30 11 -11 -13 -11 -15 2 -7 12 7 13 6 3 -7 -7 -8 -9
-19 -5 -23 4 -5 1 -5 -6 -1 -7 4 -10 11 -7 16 7 12 -31 19 -46 8 -11 -8 -10
-9 3 -4 10 3 20 0 24 -7 4 -7 4 -9 -1 -5 -4 4 -16 3 -26 -3 -14 -7 -19 -6 -19
3 0 6 -7 3 -16 -8 -8 -10 -13 -14 -10 -9 2 6 -4 11 -14 11 -14 0 -16 -4 -9
-12 8 -9 5 -11 -10 -7 -13 3 -21 1 -21 -6 0 -7 -4 -10 -9 -6 -5 3 -12 1 -15
-4 -7 -11 13 -9 34 4 12 7 13 6 3 -7 -7 -8 -9 -19 -5 -23 4 -5 2 -5 -4 -2 -7
4 -15 0 -18 -9 -4 -11 -2 -15 7 -11 8 3 14 -1 14 -9 0 -7 -4 -11 -9 -8 -11 7
-6 -66 6 -84 6 -11 2 -15 -14 -14 -8 1 -5 -42 4 -57 7 -10 3 -11 -15 -6 l-24
7 23 -17 c12 -9 22 -22 22 -28 0 -7 -4 -6 -10 3 -5 8 -10 13 -11 10 0 -3 -2
-13 -4 -23 -3 -14 1 -17 13 -12 13 5 14 3 5 -6 -6 -6 -9 -19 -6 -28 5 -13 3
-12 -9 2 -13 17 -14 17 -13 -7 1 -14 5 -29 10 -33 4 -5 5 -2 1 4 -5 9 -2 11 8
7 16 -6 23 -25 9 -23 -19 3 -33 -2 -33 -11 0 -5 8 -7 18 -4 13 4 12 1 -5 -14
-18 -16 -20 -21 -8 -26 16 -6 10 -34 -9 -49 -7 -6 -4 -7 6 -3 10 3 17 2 17 -2
-1 -4 0 -9 1 -12 7 -18 7 -39 0 -35 -12 7 -18 -62 -7 -81 6 -10 6 -15 0 -11
-5 3 -10 -13 -10 -35 -1 -27 2 -36 8 -27 5 8 9 9 9 3 0 -6 -7 -17 -15 -24 -9
-7 -13 -15 -10 -18 3 -3 0 -11 -6 -18 -7 -8 -6 -14 2 -20 8 -5 10 -3 4 7 -5 8
-4 11 1 6 16 -15 12 -62 -9 -84 -12 -13 -15 -23 -8 -23 8 0 11 -17 9 -54 -2
-30 0 -52 4 -50 3 2 9 0 13 -6 3 -6 -3 -10 -15 -10 -20 0 -21 -1 -4 -17 16
-17 16 -18 1 -21 -9 -2 -17 -8 -17 -13 0 -6 5 -7 10 -4 16 10 12 -7 -8 -28
-16 -19 -16 -20 6 -8 14 8 22 8 22 1 0 -5 -4 -10 -10 -10 -5 0 -6 -7 -3 -17 5
-12 3 -14 -8 -8 -11 6 -12 5 -1 -6 17 -19 15 -29 -5 -23 -15 5 -15 4 1 -6 15
-10 16 -14 5 -21 -10 -6 -11 -9 -1 -9 6 0 12 -5 12 -11 0 -5 -4 -8 -8 -5 -14
9 -8 -40 8 -58 11 -15 11 -17 -1 -14 -8 2 -20 10 -27 18 -10 12 -10 10 -1 -12
7 -16 17 -25 23 -21 6 4 4 -1 -4 -11 -15 -20 -23 -49 -10 -41 4 3 10 -2 13
-10 4 -9 1 -12 -9 -8 -18 7 -18 -2 2 -21 14 -15 13 -16 -8 -16 -17 0 -19 -3
-9 -9 7 -5 11 -13 7 -19 -3 -6 2 -15 11 -21 16 -9 15 -10 -6 -11 -24 0 -24 0
-5 -16 10 -8 13 -13 7 -9 -17 8 -17 -7 0 -24 10 -12 9 -13 -7 -7 -16 5 -17 4
-6 -9 7 -8 17 -12 23 -8 6 3 7 1 3 -6 -4 -6 -12 -9 -17 -5 -6 3 -8 -6 -5 -22
3 -15 0 -35 -7 -43 -9 -12 -9 -13 1 -7 7 4 12 1 12 -9 0 -10 -5 -13 -12 -9 -9
5 -8 2 1 -9 8 -10 11 -20 8 -24 -4 -3 -1 -13 6 -21 9 -13 9 -14 -1 -8 -9 5
-11 1 -8 -16 3 -13 5 -27 5 -31 1 -5 6 -5 11 -2 6 3 10 1 10 -6 0 -8 5 -7 17
2 14 12 16 12 8 0 -6 -11 -4 -13 11 -8 17 6 17 6 2 -6 -14 -11 -12 -13 19 -14
20 -1 39 -6 43 -12 3 -7 13 -10 21 -8 8 2 11 2 6 0 -4 -3 -4 -9 -1 -14 3 -6
12 -5 22 3 13 11 14 11 7 -1 -6 -11 -3 -13 13 -9 12 4 25 1 29 -4 3 -6 1 -8
-5 -4 -6 3 -14 1 -18 -6 -4 -7 -4 -10 1 -6 4 4 16 3 26 -3 15 -8 17 -6 12 8
-6 15 -5 16 9 3 9 -8 14 -17 13 -20 -2 -3 5 -7 16 -7 12 -1 17 3 14 10 -3 7 2
2 11 -11 9 -12 27 -22 41 -22 14 0 21 -4 18 -10 -9 -14 9 -12 24 2 7 7 12 9
11 3 -2 -5 -2 -17 -1 -25 1 -13 2 -13 11 0 8 13 11 13 22 1 7 -8 8 -11 2 -8
-6 3 -11 1 -11 -6 0 -7 8 -13 18 -13 10 0 16 3 14 6 -2 4 2 7 10 7 8 0 12 -4
9 -9 -3 -4 -1 -8 5 -8 5 0 12 -8 14 -18 4 -16 5 -16 6 1 0 9 6 17 12 17 6 0 8
-9 4 -20 -4 -12 -2 -20 5 -20 6 0 8 4 5 10 -3 6 -1 10 4 10 6 0 11 -5 11 -11
0 -7 10 -9 25 -7 15 3 25 1 25 -6 0 -6 9 -17 20 -24 24 -14 27 -4 4 12 -13 10
-13 12 5 12 11 0 19 -5 18 -11 -1 -5 7 -8 17 -7 17 3 18 1 7 -11 -9 -12 -9
-17 0 -23 7 -4 9 -3 6 3 -4 6 0 14 9 17 10 4 13 2 8 -6 -5 -7 -2 -9 9 -5 8 3
21 -1 28 -9 6 -8 14 -12 17 -10 2 3 11 -2 20 -10 12 -13 16 -13 23 -2 6 9 9 6
9 -11 0 -20 2 -22 15 -11 13 11 14 10 9 -6 -7 -18 -6 -18 17 1 19 16 21 17 10
2 -12 -16 -12 -20 4 -35 18 -16 18 -16 4 2 -13 18 -13 18 6 6 14 -8 20 -21 19
-41 -1 -15 3 -27 8 -26 6 1 13 -4 16 -12 3 -8 0 -11 -7 -7 -7 5 -9 1 -5 -8 3
-9 10 -14 14 -11 5 3 12 0 16 -6 5 -8 3 -9 -6 -4 -10 6 -12 4 -7 -8 3 -9 1
-18 -6 -21 -7 -2 -3 -5 8 -5 17 -1 17 -3 5 -11 -12 -7 -12 -10 -1 -10 7 0 11
-6 8 -13 -3 -7 4 -19 14 -26 11 -6 18 -15 15 -20 -10 -16 -14 -61 -5 -56 5 4
6 11 3 17 -4 6 -2 8 4 5 5 -4 8 -17 4 -29 -3 -14 -2 -19 6 -14 8 5 12 -2 12
-18 0 -14 5 -26 11 -26 5 0 7 -5 4 -10 -4 -6 -11 -7 -17 -4 -7 4 -8 2 -4 -5 4
-6 12 -9 17 -6 13 9 11 -19 -3 -33 -7 -7 -9 -12 -6 -12 4 0 14 7 22 16 9 8 16
11 16 5 0 -5 -5 -13 -10 -16 -8 -5 -7 -12 2 -23 11 -13 11 -14 -1 -8 -9 6 -12
5 -9 -5 3 -8 12 -13 19 -11 9 2 8 -3 -4 -16 -20 -22 -22 -36 -4 -27 6 4 4 0
-7 -9 -11 -9 -16 -21 -12 -32 6 -15 4 -15 -10 -3 -16 13 -16 12 -5 -10 11 -19
11 -22 0 -16 -9 6 -10 3 -5 -10 5 -15 4 -16 -9 -5 -9 7 -18 10 -22 6 -3 -3 -1
-6 5 -6 7 0 12 -7 12 -16 0 -8 -4 -12 -10 -9 -5 3 -11 1 -11 -4 -1 -6 -2 -19
-3 -28 -4 -37 -18 -64 -31 -59 -8 3 -12 -2 -10 -12 1 -9 -1 -19 -6 -22 -4 -3
-9 -17 -11 -30 -2 -14 -7 -31 -11 -38 -5 -6 -5 -17 -2 -22 4 -6 3 -10 -2 -9
-19 3 -33 -2 -33 -12 0 -5 5 -7 12 -3 7 4 8 3 4 -4 -4 -7 -14 -12 -22 -12 -8
0 -14 -5 -14 -11 0 -5 5 -7 12 -3 6 4 8 3 4 -4 -3 -5 0 -13 6 -16 7 -3 1 -3
-13 -1 -23 3 -26 0 -21 -17 4 -16 2 -19 -9 -13 -12 8 -12 6 -1 -8 15 -17 9
-37 -11 -37 -7 0 -6 4 3 10 8 5 11 12 7 16 -11 12 -20 -4 -22 -39 -1 -22 -7
-32 -17 -31 -10 1 -14 -5 -11 -17 3 -10 9 -16 14 -13 5 3 6 -3 2 -12 -4 -11
-8 -13 -11 -6 -2 7 -9 12 -14 12 -6 0 -9 -3 -5 -6 3 -4 0 -21 -8 -39 -7 -19
-11 -36 -8 -39 3 -3 -4 -4 -16 -1 -18 3 -20 1 -11 -15 8 -16 8 -18 -5 -14 -8
4 -15 2 -15 -4 0 -6 6 -13 13 -15 9 -4 9 -6 -1 -6 -8 -1 -10 -6 -6 -13 5 -9 2
-8 -9 1 -15 12 -17 12 -10 -4 5 -15 3 -17 -12 -12 -13 6 -15 4 -8 -5 13 -18
10 -44 -5 -40 -7 1 -12 -5 -12 -13 0 -9 6 -12 17 -8 14 5 13 3 -3 -14 -10 -11
-22 -18 -26 -16 -4 2 -10 -2 -14 -8 -4 -7 -3 -9 4 -5 6 3 13 2 17 -4 3 -5 2
-10 -3 -10 -6 0 -13 -7 -16 -16 -6 -15 -4 -15 11 -3 15 13 16 12 11 -8 -5 -17
-2 -20 11 -15 14 5 14 4 2 -11 -12 -15 -12 -17 4 -11 14 6 16 4 10 -6 -6 -10
-4 -12 9 -7 9 4 15 3 12 -2 -3 -5 1 -14 10 -21 8 -7 13 -19 10 -27 -4 -9 -2
-11 7 -6 6 4 18 8 25 9 11 2 11 0 0 -13 -10 -13 -9 -18 9 -33 12 -10 19 -21
15 -24 -3 -4 1 -4 9 -1 19 7 45 -20 29 -30 -17 -10 -3 -23 24 -20 24 3 28 -8
12 -34 -6 -10 -5 -12 2 -7 11 7 17 -6 13 -27 -1 -5 3 -6 9 -2 6 3 7 11 4 17
-4 7 -2 8 5 4 6 -4 9 -12 6 -17 -6 -8 8 -13 28 -10 4 0 6 -2 6 -6 -3 -20 2
-34 10 -29 5 3 8 -2 7 -12 0 -9 5 -16 12 -14 9 2 11 -2 6 -10 -17 -27 -13 -40
7 -22 18 17 19 16 15 -17 -4 -31 -3 -32 11 -14 15 19 15 19 11 -7 -4 -21 -1
-26 13 -23 10 2 22 -1 25 -7 4 -7 2 -8 -4 -4 -20 12 -13 -9 8 -24 22 -16 28
-36 8 -24 -7 4 -1 -5 13 -20 14 -15 34 -28 46 -28 22 -2 26 -25 9 -47 -8 -11
-8 -13 1 -8 16 10 44 -3 36 -16 -4 -6 0 -8 11 -4 14 6 15 3 5 -14 -10 -19 -9
-20 10 -9 12 6 21 7 20 3 -3 -20 2 -34 11 -28 6 3 7 -1 4 -10 -4 -8 -1 -22 6
-30 14 -17 35 -21 25 -5 -3 5 -1 10 4 10 11 0 10 -27 -1 -46 -4 -6 -1 -11 7
-11 8 0 12 4 9 9 -3 4 -1 8 4 8 5 0 12 -14 16 -31 5 -27 9 -31 31 -26 14 2 23
2 20 -1 -3 -3 2 -17 12 -31 15 -24 15 -25 0 -12 -15 12 -17 12 -11 -3 3 -9 10
-16 16 -16 5 0 6 -4 3 -10 -4 -6 1 -7 11 -3 14 5 16 3 11 -11 -6 -16 -3 -17
20 -12 l28 6 -25 -16 c-14 -8 -17 -13 -7 -10 11 4 20 -1 24 -12 4 -9 13 -22
21 -28 8 -6 12 -16 9 -22 -5 -6 1 -9 15 -6 13 2 18 2 11 -2 -8 -3 -1 -16 20
-38 18 -18 37 -31 42 -28 6 3 3 -3 -5 -13 -12 -15 -12 -17 -1 -10 11 6 13 4 7
-10 -5 -15 -4 -16 9 -5 8 7 16 9 16 4 1 -5 2 -13 4 -19 1 -5 3 -16 3 -23 1 -7
7 -10 14 -6 7 5 9 2 5 -9 -4 -12 -2 -14 11 -10 15 6 15 5 3 -11 -8 -9 -10 -16
-5 -15 21 4 48 -2 39 -9 -5 -4 -11 -16 -12 -27 -1 -19 -1 -19 11 -2 14 17 27
23 25 10 -5 -29 2 -35 17 -15 15 22 17 22 41 7 24 -16 24 -16 12 7 -11 21 -11
22 5 9 15 -12 16 -12 9 5 -6 17 -5 18 12 4 17 -14 17 -13 11 10 -6 20 -5 22 4
8 6 -10 17 -15 26 -11 10 4 12 9 4 18 -7 9 -2 11 20 10 17 -1 30 2 30 7 0 4 5
8 11 8 5 0 7 -4 4 -10 -3 -5 -1 -10 4 -10 14 0 14 13 -1 28 -7 7 -8 12 -2 12
6 0 14 -3 18 -8 17 -17 60 3 48 22 -3 5 2 7 11 3 9 -3 18 0 21 9 8 20 27 17
19 -3 -5 -16 -4 -15 9 1 9 12 20 16 28 11 9 -5 11 -4 6 3 -6 11 5 16 26 13 4
0 5 5 2 13 -7 18 12 30 22 15 5 -8 3 -9 -6 -4 -9 6 -11 4 -5 -5 6 -10 13 -7
27 11 11 13 16 18 12 10 -5 -9 -3 -12 4 -7 7 4 12 15 12 24 0 13 2 13 15 -4
11 -14 14 -15 9 -3 -6 20 11 34 22 18 5 -8 3 -9 -6 -4 -9 6 -11 4 -6 -4 6 -9
12 -8 26 4 11 10 24 14 31 9 7 -4 10 -3 5 4 -3 6 0 17 8 25 8 8 13 16 11 18
-3 4 45 10 91 12 11 1 21 7 21 14 0 8 -5 9 -11 4 -6 -5 -20 -5 -31 0 -18 9
-18 9 2 5 13 -2 26 0 29 5 3 5 10 7 15 4 5 -4 9 -2 9 3 0 5 11 8 25 7 14 -2
23 1 19 6 -3 5 -10 6 -16 3 -6 -4 -8 -2 -5 4 4 5 16 8 27 5 11 -3 17 -9 14
-14 -3 -5 2 -6 10 -3 14 5 14 8 1 21 -8 8 -15 17 -15 21 0 3 5 1 12 -6 17 -17
28 -15 22 6 -5 14 -4 15 5 2 10 -13 12 -13 21 0 9 13 10 13 10 0 0 -13 2 -13
9 0 6 8 7 19 5 25 -3 5 7 -3 22 -20 15 -16 25 -22 21 -13 -5 14 -2 17 16 14
12 -2 21 -8 20 -12 0 -5 5 -15 13 -22 13 -11 14 -9 10 14 -3 14 -2 23 2 19 4
-3 7 -11 7 -16 0 -5 4 -9 8 -8 5 0 15 -8 22 -17 11 -16 15 -17 31 -4 16 12 17
12 7 0 -19 -21 -16 -29 12 -25 22 2 23 0 13 -13 -11 -13 -10 -15 4 -9 11 4 22
0 28 -11 10 -14 11 -13 6 8 -4 22 -4 23 8 8 7 -10 17 -14 22 -10 4 4 2 -2 -6
-12 -10 -13 -10 -17 -2 -12 7 4 12 2 12 -5 0 -8 5 -7 17 2 11 10 14 10 9 2 -9
-16 6 -17 21 -2 8 8 13 8 18 0 3 -6 3 -10 -2 -9 -4 2 -9 -1 -10 -7 -3 -10 0
-11 33 -14 9 0 12 -6 8 -13 -5 -8 0 -9 14 -6 12 4 25 1 29 -4 3 -7 1 -8 -5 -4
-7 4 -12 2 -12 -3 0 -6 7 -11 16 -11 9 0 12 -5 8 -12 -5 -8 -2 -9 11 -4 15 6
16 4 4 -10 -11 -13 -11 -15 3 -12 9 1 16 0 15 -3 -1 -4 7 -16 17 -28 19 -20
19 -22 1 -41 -18 -20 -18 -21 0 -14 13 5 16 4 11 -5 -4 -6 -2 -19 6 -28 9 -12
9 -15 1 -9 -7 4 -13 3 -13 -3 0 -5 10 -13 22 -17 l21 -6 -24 -14 c-18 -10 -20
-13 -7 -14 21 0 32 -16 17 -26 -8 -5 -9 -3 -4 6 5 8 4 11 -3 7 -12 -8 -4 -47
10 -47 6 0 8 -9 5 -21 -3 -13 0 -22 10 -26 12 -5 12 -7 1 -14 -9 -6 -10 -9 -1
-9 7 0 10 -7 7 -15 -4 -9 0 -15 10 -15 18 0 22 -15 6 -25 -5 -3 -10 -11 -10
-16 0 -6 4 -8 9 -5 5 3 12 -1 15 -10 3 -8 2 -13 -3 -9 -5 3 -8 -3 -7 -12 2
-10 -1 -21 -6 -24 -5 -3 4 -12 21 -19 28 -11 29 -14 15 -28 -14 -14 -14 -17
-2 -26 8 -6 14 -24 14 -40 -1 -16 4 -35 11 -42 10 -10 10 -13 0 -17 -8 -4 -6
-6 4 -6 10 -1 15 -9 14 -24 -3 -28 5 -48 15 -42 5 3 6 -3 3 -14 -3 -10 0 -22
7 -26 8 -5 6 -11 -7 -21 -17 -13 -17 -14 1 -7 15 5 18 3 13 -10 -4 -12 -1 -17
11 -17 14 0 15 -2 2 -9 -8 -6 -18 -7 -24 -4 -5 3 -6 1 -2 -5 4 -6 12 -9 20 -6
7 3 13 -2 13 -10 0 -8 -4 -13 -9 -10 -4 3 -8 0 -8 -5 0 -6 6 -11 14 -11 8 0
18 -5 22 -12 5 -8 2 -9 -10 -5 -13 5 -15 3 -7 -11 5 -9 10 -21 12 -27 2 -5 10
-9 17 -7 8 2 11 -1 7 -7 -8 -14 62 -10 85 4 13 8 13 7 1 -8 -16 -20 -1 -23 18
-4 10 10 11 9 6 -3 -4 -12 1 -16 17 -17 13 0 31 -4 41 -8 12 -5 17 -2 17 11 0
17 1 17 13 -1 13 -17 16 -17 45 -2 20 9 34 12 38 6 3 -6 12 -8 20 -5 7 3 16 1
20 -5 4 -6 15 -4 30 5 13 9 27 16 31 16 4 0 0 -5 -9 -11 -10 -5 -18 -15 -18
-21 0 -6 11 -3 25 6 22 15 24 15 18 0 -5 -14 -3 -15 15 -5 15 8 22 8 22 1 0
-5 8 -10 18 -10 13 0 14 2 4 9 -11 6 -9 9 6 13 16 5 19 1 17 -18 -1 -13 2 -21
6 -18 5 3 9 13 9 22 0 13 2 14 9 3 6 -9 11 -10 15 -2 9 14 26 14 26 0 0 -5 -5
-7 -12 -3 -7 5 -8 3 -4 -5 6 -9 13 -8 27 5 15 13 22 15 31 6 15 -15 65 -16 73
-2 5 8 11 8 19 1 7 -6 17 -7 21 -3 5 4 5 1 0 -7 -6 -10 -2 -12 14 -6 16 5 27
1 37 -12 11 -14 13 -14 8 -2 -3 10 1 19 11 23 9 3 14 2 11 -2 -2 -4 -1 -14 5
-22 7 -12 9 -9 10 10 0 17 3 20 7 10 4 -8 13 -16 20 -18 8 -1 11 2 8 7 -3 5 2
15 12 22 14 11 15 11 5 0 -13 -15 -6 -44 8 -35 5 3 6 11 2 17 -4 7 1 6 10 -2
16 -12 17 -12 11 5 -5 18 -5 18 6 2 12 -19 36 -26 25 -7 -4 6 3 5 14 -3 18
-11 23 -11 31 2 9 14 14 7 11 -13 -1 -5 3 -6 8 -3 5 4 12 2 16 -3 3 -6 13 -7
21 -4 11 4 12 8 4 13 -8 5 -7 9 5 13 9 4 14 3 11 -2 -3 -5 0 -14 8 -20 11 -9
14 -9 12 1 0 7 3 13 9 13 5 0 8 -7 7 -15 -3 -12 -1 -13 9 -2 7 6 17 12 22 12
4 0 5 -6 1 -12 -6 -10 -4 -10 7 -1 17 17 32 17 23 1 -5 -9 -2 -9 9 1 10 8 17
9 17 3 0 -6 9 -10 19 -9 11 0 17 5 15 9 -3 5 -10 6 -15 3 -5 -4 -9 -1 -9 4 0
17 14 13 40 -9 27 -24 38 -26 20 -5 -11 14 -10 14 14 5 34 -13 39 -13 31 0 -3
6 -1 10 4 10 6 0 11 -3 11 -8 0 -4 13 -8 30 -8 16 -1 28 1 26 5 -3 4 11 7 30
7 24 0 34 -5 34 -16 1 -12 3 -12 11 3 5 9 15 17 21 17 6 0 5 -7 -3 -17 -13
-17 -12 -17 11 -2 28 17 64 14 53 -4 -5 -8 -2 -8 9 0 8 7 19 9 23 5 5 -4 5 -2
1 5 -3 7 2 14 14 18 11 3 20 11 20 16 0 6 -5 7 -12 3 -7 -5 -8 -3 -4 5 5 7 13
10 20 8 6 -3 12 4 12 14 0 15 -3 16 -16 6 -13 -10 -13 -10 -3 4 7 9 10 19 6
23 -4 4 3 9 15 13 21 5 21 6 5 20 -10 8 -12 11 -4 7 11 -5 13 -3 8 10 -4 10
-1 19 8 22 8 4 15 10 15 16 0 5 -6 6 -12 2 -7 -4 -4 2 7 13 11 11 23 19 27 16
4 -2 5 3 2 11 -3 9 -11 13 -18 9 -6 -3 -2 3 8 15 11 12 17 25 13 28 -3 3 6 17
21 31 15 13 22 22 15 19 -6 -4 -14 -2 -18 4 -3 5 0 10 7 10 8 1 5 7 -7 17 -14
11 -15 14 -3 10 21 -7 31 3 17 19 -8 9 -5 11 13 8 13 -2 17 -2 11 2 -7 3 -13
10 -13 15 0 6 6 7 13 3 9 -6 9 -4 -1 8 -11 14 -11 18 0 25 22 13 37 57 27 76
-8 13 -5 15 12 12 17 -4 19 -2 9 10 -9 11 -9 15 -1 15 9 0 9 5 0 21 -7 14 -7
19 0 15 12 -8 26 37 17 53 -4 5 -1 13 5 17 7 4 9 3 6 -3 -4 -6 0 -14 9 -17 8
-3 13 -2 10 3 -3 5 -3 23 0 39 5 22 11 29 23 25 10 -3 12 -2 5 4 -6 4 -14 17
-17 27 -6 15 -5 17 7 7 12 -10 14 -6 12 23 -1 19 3 32 8 29 5 -4 7 4 3 16 -3
14 0 24 9 28 10 4 12 12 8 27 -6 18 -5 19 10 7 14 -12 17 -10 22 18 5 22 11
30 20 27 8 -3 14 -1 14 4 0 6 3 9 8 9 19 -3 25 2 12 11 -22 14 6 13 33 -2 21
-10 21 -10 7 7 -14 17 -13 18 13 13 21 -4 30 -1 35 11 9 26 42 42 42 21 0 -6
-3 -9 -7 -8 -5 2 -9 0 -10 -4 -7 -19 -2 -20 17 -3 11 10 17 22 14 26 -3 5 2 6
10 3 9 -3 16 -1 16 5 0 6 5 11 11 11 5 0 7 -5 3 -12 -5 -7 -3 -8 5 -4 7 5 10
14 7 22 -3 7 0 16 6 20 6 4 8 3 4 -4 -9 -15 12 -26 28 -13 7 6 17 7 21 3 5 -4
4 -1 0 7 -6 11 -4 13 10 7 14 -5 15 -4 7 7 -8 10 -7 13 8 14 13 1 17 -3 13
-15 -4 -13 -3 -14 5 -3 6 8 15 10 23 5 11 -6 12 -5 3 7 -9 11 -9 17 1 26 10
10 14 9 19 -3 5 -12 10 -13 27 -3 12 6 19 7 15 1 -3 -5 1 -15 8 -21 11 -9 16
-9 22 0 5 8 3 9 -6 4 -9 -6 -11 -4 -5 5 6 10 12 9 25 -7 15 -19 17 -19 28 -4
9 12 10 12 7 1 -3 -8 4 -21 16 -28 12 -8 18 -9 14 -3 -3 6 -1 11 6 11 7 0 9
-8 6 -21 -4 -17 -3 -19 6 -10 13 13 31 15 23 2 -8 -12 20 -22 42 -15 14 5 14
4 3 -4 -22 -15 3 -42 32 -34 20 5 21 4 7 -13 -14 -17 -14 -18 9 -6 13 7 21 8
17 3 -3 -6 -2 -13 4 -17 6 -4 7 -12 3 -18 -4 -7 2 -5 12 3 14 11 19 12 22 2 3
-6 9 -10 14 -7 5 4 6 -1 3 -9 -3 -9 -1 -16 5 -16 6 0 11 8 12 18 0 13 2 12 9
-5 5 -13 14 -23 20 -23 6 0 8 -4 5 -10 -3 -6 1 -7 9 -4 9 3 16 1 16 -5 0 -5
10 -15 21 -22 15 -8 19 -8 15 0 -5 8 0 8 18 0 14 -7 23 -16 20 -20 -3 -5 0 -9
6 -9 6 0 9 -4 6 -8 -3 -5 1 -9 9 -9 8 0 12 3 10 7 -2 4 2 7 9 7 8 0 12 -8 9
-21 -4 -16 -2 -17 5 -7 11 16 27 -3 16 -20 -4 -8 -1 -8 12 -1 19 10 54 -5 54
-23 0 -5 -8 -1 -18 8 -15 14 -19 15 -19 2 0 -8 4 -12 8 -9 4 2 10 0 14 -6 4
-6 11 -8 16 -5 5 4 9 1 9 -6 0 -8 10 -9 32 -5 29 6 30 5 14 -7 -14 -10 -15
-14 -5 -15 44 -5 59 -10 82 -25 15 -9 31 -17 37 -17 5 0 10 -4 10 -8 0 -5 -7
-9 -15 -9 -8 0 -15 4 -15 8 0 3 -11 14 -25 23 -23 15 -25 15 -25 1 0 -9 4 -14
9 -10 5 3 17 -3 27 -12 22 -23 39 -24 61 -6 10 8 11 11 3 7 -8 -4 -11 -3 -7 1
10 12 39 16 32 5 -3 -5 -2 -11 3 -14 13 -8 11 28 -2 37 -6 5 -1 5 12 2 16 -5
22 -2 22 9 0 8 5 18 12 22 7 5 8 3 3 -6 -5 -8 6 -4 23 9 37 26 42 36 10 21
-21 -10 -21 -9 2 11 14 12 24 27 22 33 -2 7 1 6 9 -1 10 -10 16 -9 31 3 14 13
15 21 6 38 -11 20 -10 20 7 6 17 -14 18 -13 12 3 -6 15 -4 16 16 6 20 -11 21
-11 8 5 -12 14 -12 16 3 10 13 -5 15 -2 9 12 -6 17 -5 18 12 4 17 -14 18 -14
5 10 -13 24 -12 24 5 10 17 -14 18 -13 12 4 -6 16 -5 17 8 6 9 -7 18 -10 22
-6 3 3 2 6 -4 6 -6 0 -14 7 -17 16 -3 8 -2 12 4 9 6 -4 14 4 19 17 6 13 10 17
10 11 1 -7 6 -13 12 -13 5 0 8 4 4 9 -3 5 -1 12 5 16 6 4 7 11 4 17 -4 5 4 4
17 -3 22 -11 23 -11 10 5 -12 14 -12 17 -1 14 8 -2 14 2 15 8 0 6 8 18 17 27
16 16 17 16 27 0 9 -16 10 -15 8 7 -1 17 2 24 12 22 12 -3 12 -1 0 14 -13 16
-12 16 11 4 23 -12 24 -12 11 4 -12 14 -12 16 3 10 13 -5 15 -2 9 12 -6 17 -5
18 12 4 17 -14 18 -14 5 10 -13 24 -12 24 5 10 17 -14 18 -13 12 2 -7 20 8 34
19 17 5 -8 3 -9 -6 -4 -9 5 -11 4 -6 -4 11 -18 25 -4 22 24 -2 13 2 23 8 22 6
-1 10 4 8 11 -2 10 2 10 20 1 22 -12 22 -11 8 6 -8 10 -10 16 -5 13 12 -7 36
17 27 28 -4 4 1 4 12 0 13 -4 17 -2 13 8 -10 25 15 38 37 18 20 -16 20 -16 7
1 -10 12 -10 17 -2 17 7 0 9 5 6 10 -3 6 -1 10 5 10 6 0 9 4 5 9 -3 6 3 8 14
6 14 -3 18 1 14 11 -4 10 0 12 11 8 9 -3 16 -1 16 5 0 6 -4 11 -10 11 -5 0
-10 5 -10 11 0 5 4 8 9 4 6 -3 15 4 21 16 8 14 18 19 31 16 17 -5 18 -3 8 9
-6 8 -9 17 -5 21 3 3 6 1 6 -5 0 -7 8 -12 18 -12 13 0 14 2 4 9 -10 6 -9 10 7
14 21 5 30 27 10 27 -5 0 -7 -5 -3 -12 5 -7 3 -8 -5 -3 -9 5 -10 10 -2 18 7 7
16 6 28 -4 10 -7 15 -10 11 -5 -3 4 2 16 13 27 11 11 17 25 13 32 -4 7 3 3 16
-8 14 -12 20 -14 15 -5 -12 19 -18 59 -8 45 5 -5 15 -12 23 -13 8 -2 12 -1 8
3 -7 8 39 55 53 55 5 0 9 5 9 11 0 8 -5 7 -15 -1 -26 -21 -23 -7 4 20 13 14
20 18 16 10 -8 -13 -6 -13 7 -2 9 8 16 19 14 25 -1 7 -1 9 1 5 7 -12 33 -9 33
3 0 5 -6 7 -13 3 -9 -6 -9 -5 0 8 7 8 9 18 5 22 -4 4 -2 7 3 6 17 -3 55 12 55
22 0 5 -5 6 -12 2 -7 -4 -8 -3 -4 5 6 9 11 9 22 0 12 -10 13 -9 8 6 -4 11 -3
16 2 12 5 -3 14 5 21 19 8 18 8 26 -3 35 -8 6 -11 16 -7 22 4 6 0 8 -10 4 -9
-3 -19 -1 -23 5 -4 7 -3 8 4 4 7 -4 12 -2 12 3 0 6 -4 11 -10 11 -5 0 -10 5
-10 11 0 5 5 7 12 3 7 -4 8 -3 4 4 -4 6 -14 8 -23 5 -10 -4 -14 -2 -9 5 3 6 2
13 -2 16 -5 3 -8 17 -6 31 2 21 0 24 -11 15 -11 -9 -12 -7 -8 10 4 13 0 25 -7
30 -8 5 -15 16 -16 24 -1 9 2 14 7 10 5 -3 9 0 9 5 0 6 -4 12 -10 12 -5 1 -14
2 -20 3 -12 1 -14 15 -4 24 4 4 4 1 -1 -7 -5 -9 -4 -12 3 -7 6 4 9 13 6 21 -4
8 -11 12 -18 8 -6 -4 -6 0 2 9 10 13 10 18 1 24 -8 4 -9 3 -5 -4 4 -7 3 -12
-3 -12 -5 0 -11 5 -13 12 -2 6 -12 12 -21 14 -9 1 -15 -1 -13 -4 2 -4 -9 -7
-25 -8 -16 -1 -29 3 -29 8 0 5 -5 6 -10 3 -6 -4 -7 -12 -4 -18 5 -8 3 -8 -7 1
-7 6 -23 12 -36 12 -13 0 -23 4 -23 8 0 4 -10 8 -21 9 -21 2 -21 1 -3 -13 18
-13 17 -13 -6 -5 -16 6 -24 15 -22 27 2 18 2 18 -8 1 -6 -9 -15 -15 -21 -12
-5 4 -9 1 -9 -5 0 -7 7 -9 18 -5 13 5 14 4 5 -6 -9 -9 -16 -9 -26 -1 -8 7 -18
8 -23 4 -4 -4 -2 2 6 12 14 18 13 19 -5 10 -17 -8 -49 -10 -65 -4 -23 8 -39 7
-34 -3 3 -7 -2 -3 -10 7 -16 19 -16 19 -16 -3 0 -12 -4 -19 -10 -16 -6 4 -8
10 -5 15 3 4 -11 4 -31 0 -29 -7 -38 -5 -55 13 -19 21 -20 21 -13 2 4 -11 4
-17 -1 -13 -4 4 -14 3 -21 -3 -14 -12 -14 7 0 30 7 10 5 12 -3 7 -7 -5 -16
-18 -21 -30 -8 -20 -9 -20 -10 -1 0 17 -2 17 -10 5 -7 -11 -10 -11 -10 -2 0 7
-5 10 -10 7 -6 -4 -7 -11 -4 -17 4 -7 2 -8 -5 -4 -6 4 -9 11 -6 16 3 5 0 12
-6 16 -7 4 -9 3 -5 -4 3 -6 2 -13 -4 -17 -5 -3 -10 -1 -10 4 0 18 -28 12 -33
-6 -4 -16 -5 -16 -6 0 0 10 -7 17 -13 14 -7 -2 -12 -10 -10 -16 1 -7 -2 -10
-8 -6 -6 3 -8 11 -5 16 9 13 -9 11 -24 -3 -11 -10 -13 -10 -7 0 5 7 1 12 -9
12 -10 0 -13 -5 -9 -13 4 -6 -2 -3 -14 7 -19 16 -22 17 -22 3 0 -9 -4 -18 -9
-22 -6 -3 -8 7 -5 22 3 23 2 25 -7 10 -5 -9 -14 -15 -19 -12 -4 3 -6 -5 -2
-17 4 -16 2 -19 -8 -13 -9 5 -11 4 -6 -4 4 -6 10 -9 14 -7 4 2 14 -3 22 -12
13 -14 12 -15 -3 -9 -9 3 -19 2 -22 -4 -4 -5 -1 -8 7 -7 7 2 14 -7 16 -20 2
-12 7 -20 11 -18 4 3 7 -6 7 -19 0 -13 -4 -21 -8 -19 -4 3 -8 -6 -8 -20 0 -18
-4 -24 -14 -20 -9 3 -13 -1 -13 -12 1 -11 -12 -25 -35 -37 -21 -11 -36 -23
-33 -25 2 -3 11 1 19 7 11 9 16 9 22 0 4 -8 3 -9 -4 -5 -7 4 -12 2 -12 -3 0
-6 -7 -11 -16 -11 -8 0 -12 -5 -9 -10 4 -6 1 -9 -7 -8 -7 2 -12 -3 -10 -11 3
-12 1 -12 -13 -1 -14 11 -16 11 -13 -1 2 -8 8 -18 13 -22 6 -5 1 -6 -11 -3
-14 4 -27 -2 -42 -19 -12 -14 -18 -25 -13 -25 6 0 16 9 24 20 8 11 16 17 19
14 3 -3 -5 -16 -19 -30 -14 -14 -27 -23 -30 -20 -6 5 -33 -18 -33 -29 0 -3 6
-3 12 1 9 6 9 3 -1 -9 -10 -13 -17 -14 -35 -5 l-21 11 20 -23 c11 -13 14 -20
7 -16 -7 4 -19 2 -27 -4 -11 -9 -17 -7 -27 9 -7 12 -18 21 -25 21 -7 0 -13 5
-13 11 0 6 -9 9 -20 6 -15 -4 -20 0 -20 15 0 17 -2 18 -15 8 -9 -7 -18 -10
-22 -6 -3 3 -2 6 4 6 5 0 10 6 10 14 0 8 -6 12 -15 8 -10 -3 -13 -1 -8 6 3 6
2 14 -4 17 -6 4 -9 1 -8 -5 2 -7 -5 -14 -15 -15 -14 -3 -16 0 -7 10 9 10 7 16
-7 23 -10 5 -24 7 -32 4 -8 -2 -11 0 -7 6 3 5 -1 12 -9 15 -10 4 -12 1 -9 -11
2 -9 -1 -7 -7 5 -7 13 -16 23 -21 23 -5 0 -6 -5 -2 -12 4 -7 3 -8 -4 -4 -6 4
-9 14 -6 24 5 14 2 13 -12 -3 -14 -17 -16 -17 -11 -2 6 16 -3 22 -27 18 -5 -1
-6 6 -2 15 5 14 4 15 -9 4 -11 -9 -15 -9 -15 -1 0 7 -5 9 -12 5 -7 -5 -9 -2
-5 8 8 22 -2 29 -24 17 -13 -7 -19 -6 -19 1 0 6 -5 8 -12 4 -7 -4 -8 -3 -4 4
4 6 14 9 24 6 14 -5 14 -4 2 4 -8 6 -18 8 -22 6 -4 -3 -8 1 -8 8 -1 8 -7 5
-16 -7 l-16 -20 4 20 c2 11 8 23 13 27 6 5 6 8 -2 8 -6 0 -15 -5 -18 -10 -4
-6 -11 -8 -16 -5 -5 4 -9 0 -9 -7 0 -10 -3 -9 -9 2 -6 8 -7 18 -5 22 3 4 -2 9
-10 9 -9 1 -21 2 -28 3 -7 0 -18 12 -25 26 -11 23 -18 20 -13 -5 1 -5 -7 -2
-18 8 -10 9 -22 14 -27 10 -4 -5 -5 -2 -1 5 6 10 11 10 22 1 8 -6 14 -7 14 -2
0 12 -46 35 -78 39 -14 2 -20 -1 -16 -8 5 -7 0 -9 -14 -6 -22 6 -47 -13 -34
-26 4 -5 -6 -6 -23 -4 -23 2 -30 -1 -29 -13 1 -10 -5 -16 -15 -14 -9 1 -22 -6
-28 -16 -8 -10 -23 -16 -38 -14 -17 1 -25 -3 -25 -12 0 -9 -6 -13 -14 -10 -8
3 -17 -1 -20 -9 -3 -9 -15 -13 -30 -10 -17 3 -23 1 -20 -8 3 -7 -3 -19 -13
-27 -16 -13 -17 -12 -4 4 8 10 9 17 3 17 -6 0 -16 -8 -21 -18 -5 -10 -19 -18
-30 -19 -13 -1 -19 2 -15 9 5 7 2 8 -5 4 -7 -5 -10 -14 -7 -21 3 -10 -2 -12
-19 -9 -13 2 -27 -1 -31 -7 -5 -8 -3 -9 6 -4 9 6 11 4 5 -5 -6 -10 -11 -9 -23
6 -12 16 -14 16 -9 2 3 -10 2 -20 -3 -23 -6 -4 -10 -1 -10 4 0 6 -4 11 -10 11
-5 0 -7 -6 -4 -13 3 -8 -2 -14 -10 -14 -8 0 -13 5 -10 11 3 6 0 4 -8 -5 -7 -9
-30 -19 -50 -23 -21 -4 -37 -12 -35 -19 2 -13 -5 -13 -38 -1 l-20 7 20 -17
c19 -16 19 -16 -7 -6 -19 6 -29 6 -34 -2 -5 -7 -2 -8 7 -3 12 7 12 6 0 -6 -10
-11 -15 -11 -18 -1 -3 8 -11 5 -24 -10 -10 -13 -18 -18 -19 -11 0 6 5 13 12
15 7 3 5 7 -6 11 -11 5 -15 3 -10 -5 5 -8 2 -9 -10 -5 -14 6 -15 3 -5 -14 9
-18 9 -19 -9 -10 -11 6 -22 7 -26 3 -4 -3 -12 0 -17 8 -9 13 -10 12 -6 -2 3
-9 -1 -19 -9 -22 -9 -3 -14 1 -14 12 0 14 -2 15 -10 2 -6 -9 -5 -20 3 -30 6
-8 2 -6 -11 4 -22 19 -22 19 -22 0 0 -16 -2 -17 -10 -4 -9 13 -10 13 -10 0 0
-13 -2 -13 -9 -1 -7 11 -10 10 -14 -5 -4 -17 -5 -17 -6 -1 0 10 -5 16 -11 12
-5 -3 -7 -12 -4 -19 4 -9 -7 -12 -40 -12 -24 1 -44 -3 -43 -9 1 -5 -3 -9 -9
-8 -6 1 -10 -11 -9 -27 1 -17 -2 -27 -8 -23 -6 4 -8 0 -4 -10 4 -12 1 -17 -11
-17 -14 0 -14 -2 -3 -9 11 -7 9 -10 -8 -16 -11 -3 -21 -11 -21 -16 0 -13 18
-11 23 4 4 9 6 9 6 -1 1 -7 -10 -24 -24 -38 -25 -25 -25 -26 -3 -20 13 3 17 3
10 0 -6 -3 -10 -10 -7 -15 4 -5 -1 -6 -9 -3 -9 3 -16 1 -16 -5 0 -6 5 -11 10
-11 6 0 10 -4 10 -10 0 -5 -8 -6 -17 -3 -16 6 -16 4 -5 -9 11 -14 10 -18 -8
-28 -23 -12 -22 -37 1 -32 9 2 8 -3 -4 -16 -9 -10 -14 -22 -10 -26 4 -4 -1 -4
-11 0 -16 6 -17 5 -6 -16 8 -15 8 -20 1 -16 -10 7 -15 -13 -14 -51 1 -7 -3
-11 -7 -8 -5 3 -12 0 -16 -6 -3 -6 0 -15 7 -20 11 -7 11 -9 -3 -9 -11 0 -16
-6 -13 -20 2 -12 -4 -24 -16 -31 -17 -9 -18 -13 -7 -27 7 -9 8 -13 2 -9 -7 4
-15 0 -18 -9 -9 -22 -8 -26 5 -19 6 4 5 -2 -2 -14 -10 -15 -16 -17 -22 -8 -9
12 -5 -3 9 -38 3 -8 1 -15 -6 -15 -6 0 -8 4 -5 10 3 6 2 10 -3 10 -5 0 -10
-15 -11 -32 -3 -55 -4 -57 -15 -55 -6 1 -10 -4 -8 -12 2 -8 -3 -11 -12 -8 -10
4 -13 1 -9 -8 3 -8 10 -12 16 -8 6 3 7 1 3 -6 -6 -9 -11 -9 -21 -1 -10 9 -18
7 -33 -8 -17 -17 -20 -17 -31 -3 -6 9 -9 10 -6 4 3 -7 1 -13 -5 -13 -6 0 -8
-5 -4 -12 4 -7 3 -8 -5 -4 -6 4 -9 12 -6 17 3 5 -1 6 -9 3 -9 -3 -13 -11 -9
-18 5 -8 3 -8 -8 0 -8 6 -29 10 -46 9 -25 -2 -34 3 -39 18 -5 15 -8 16 -14 6
-7 -10 -12 -10 -27 2 -16 13 -17 13 -4 -4 8 -10 9 -17 3 -17 -6 0 -13 4 -16 9
-8 13 -57 1 -49 -13 3 -6 -2 -4 -13 5 -10 9 -25 14 -32 12 -8 -3 -10 1 -6 14
6 16 5 16 -10 -2 -13 -15 -16 -16 -13 -4 4 13 1 15 -16 11 -19 -5 -20 -3 -10
10 11 12 9 18 -9 34 -22 19 -22 19 -8 0 14 -18 14 -18 -6 -6 -19 12 -20 16 -8
27 17 18 18 24 1 17 -8 -3 -13 4 -14 18 -2 15 1 18 6 10 6 -10 10 -10 20 1 9
12 8 15 -6 13 -13 -1 -19 7 -20 29 -3 43 -8 63 -18 72 -4 4 -5 3 -1 -4 3 -6 1
-15 -5 -19 -7 -4 -9 -3 -5 4 3 6 2 13 -3 17 -6 3 -8 12 -5 19 3 7 -2 19 -10
26 -16 13 -12 35 5 25 5 -3 6 1 3 9 -3 9 -10 16 -14 16 -4 0 -11 7 -14 16 -3
8 -2 13 3 10 5 -3 11 0 14 7 6 16 -16 47 -34 47 -12 0 -12 2 0 9 8 5 16 17 17
25 1 9 -2 14 -7 10 -5 -3 -7 -10 -4 -15 3 -5 -1 -6 -10 -2 -13 5 -14 7 -3 14
11 7 10 11 -2 19 -13 9 -13 10 0 10 12 0 13 2 1 9 -11 7 -11 10 0 15 8 3 4 4
-9 2 -19 -4 -21 -2 -11 10 6 8 7 14 2 14 -11 0 -9 42 3 61 4 8 3 9 -4 5 -8 -5
-12 1 -12 14 0 14 -4 19 -12 15 -7 -4 -4 1 7 11 14 12 15 15 4 11 -12 -4 -16
1 -16 19 0 14 4 21 11 18 6 -3 0 4 -13 15 -14 13 -18 21 -10 21 10 1 10 3 -2
10 -9 5 -14 21 -13 39 1 17 -2 28 -7 25 -5 -3 -9 0 -9 7 0 9 -3 9 -14 0 -12
-10 -13 -8 -8 11 5 20 3 21 -10 10 -12 -10 -18 -9 -28 3 -7 8 -17 12 -24 8 -6
-4 -5 1 3 10 13 16 12 17 -13 7 -20 -7 -25 -7 -20 2 5 8 2 9 -10 5 -14 -6 -17
-3 -12 9 5 14 4 15 -9 4 -12 -10 -15 -10 -15 0 0 10 -3 10 -15 0 -12 -10 -16
-9 -21 4 -3 9 -11 13 -18 9 -6 -4 -4 2 4 12 14 17 13 18 -5 11 -11 -4 -27 -11
-35 -14 -11 -4 -9 2 5 19 15 18 16 20 3 10 -17 -12 -23 -9 -19 12 1 5 -3 6 -9
2 -6 -3 -8 -11 -5 -16 4 -5 1 -9 -4 -9 -6 0 -11 5 -11 10 0 6 -7 10 -16 10 -9
0 -12 5 -8 13 5 8 2 8 -9 -2 -11 -9 -17 -10 -17 -2 0 6 -5 11 -11 11 -5 0 -7
-6 -3 -12 5 -9 2 -9 -9 1 -9 7 -17 19 -17 25 0 6 5 4 10 -4 6 -9 10 -10 10 -3
0 19 -20 26 -26 9 -3 -9 -10 -13 -15 -10 -5 3 -7 10 -4 15 8 12 -8 12 -21 -1
-7 -7 -11 -6 -11 5 0 8 4 15 9 15 4 0 8 5 8 11 0 8 -4 8 -12 1 -22 -17 -67
-11 -73 9 -4 12 -12 16 -22 12 -10 -4 -14 -2 -9 5 3 6 2 13 -4 17 -5 3 -10 1
-10 -4 0 -6 -4 -11 -10 -11 -5 0 -7 6 -4 14 4 11 -1 14 -20 12 -14 -2 -31 3
-37 10 -6 8 -15 11 -20 8 -5 -3 -6 1 -4 8 3 8 -2 22 -10 33 -16 19 -16 19 -6
-2 7 -14 8 -24 1 -28 -9 -6 -14 1 -11 18 0 4 -4 7 -10 7 -5 0 -7 6 -3 13 5 7
1 7 -12 -3 -10 -8 -16 -11 -12 -6 4 5 0 15 -8 23 -8 8 -12 19 -9 24 4 5 0 6
-8 3 -8 -3 -18 -1 -21 4 -3 6 -16 8 -29 6 -12 -2 -16 -2 -9 2 13 6 17 25 5 23
-27 -4 -79 32 -65 45 4 4 2 7 -3 6 -22 -5 -46 0 -41 9 3 4 -6 7 -19 5 -21 -2
-23 0 -15 17 9 15 8 17 -6 12 -12 -4 -15 -3 -10 5 4 7 1 12 -9 12 -9 0 -13 -5
-10 -10 3 -6 1 -10 -5 -10 -7 0 -9 8 -5 20 6 20 -9 28 -20 11 -3 -6 -19 -8
-35 -6 -18 2 -28 0 -24 -6 3 -5 9 -7 14 -4 5 3 11 1 14 -4 3 -4 -2 -8 -12 -8
-45 0 -54 -3 -49 -17 4 -10 1 -13 -7 -10 -8 3 -17 0 -21 -6 -5 -8 -11 -8 -21
1 -12 10 -13 8 -8 -7 5 -18 5 -18 -9 -1 -13 15 -16 16 -27 2 -7 -9 -19 -14
-27 -11 -8 3 -12 2 -9 -2 11 -18 -23 -50 -45 -45 -15 4 -20 2 -15 -5 4 -7 -3
-9 -20 -6 -24 4 -26 3 -14 -11 12 -14 10 -14 -15 -5 -26 10 -27 9 -14 -6 13
-16 12 -16 -8 -5 -21 11 -27 8 -24 -11 2 -12 -14 -9 -28 4 -11 11 -11 9 -2 -9
10 -20 9 -21 -14 -17 -23 4 -35 -9 -17 -19 4 -2 2 -2 -5 -1 -6 2 -14 0 -16 -4
-2 -4 -2 -1 -1 6 3 9 -1 10 -16 2 -11 -6 -20 -13 -20 -16 0 -3 5 -2 12 2 7 4
8 3 4 -5 -6 -9 -11 -9 -21 -1 -9 8 -21 6 -44 -7 -17 -10 -31 -22 -31 -26 0 -5
-5 -5 -10 -2 -6 3 -10 -2 -11 -12 0 -10 -3 -13 -6 -5 -2 6 -9 12 -15 12 -6 0
-7 -7 -4 -16 6 -14 4 -15 -9 -4 -13 11 -16 11 -13 -1 2 -8 -5 -14 -17 -14 -11
0 -26 -4 -34 -9 -9 -6 -12 -5 -8 1 4 6 0 16 -9 23 -12 11 -12 15 -2 21 9 6 10
9 1 9 -7 0 -17 -8 -23 -17 -8 -15 -10 -13 -8 12 3 25 0 30 -19 29 -18 0 -20 2
-11 13 9 11 8 13 -3 11 -8 -2 -13 3 -11 9 3 17 -15 17 -22 1 -4 -7 -4 -3 -2
10 2 12 0 22 -6 22 -5 0 -6 5 -2 12 4 7 3 8 -4 4 -6 -4 -9 -14 -6 -24 3 -9 -1
-6 -9 8 -9 14 -13 28 -11 32 3 5 -2 8 -11 8 -11 0 -15 5 -11 16 3 8 2 12 -4 9
-6 -3 -10 -1 -10 4 0 6 -5 11 -11 11 -5 0 -7 -6 -3 -12 5 -10 4 -10 -6 -1 -13
12 -20 30 -22 60 -1 7 -5 10 -10 7 -5 -3 -6 -10 -3 -15 4 -5 4 -9 1 -9 -7 0
-39 60 -42 78 -1 6 2 10 7 6 5 -3 9 1 9 10 0 8 6 16 13 19 9 3 9 7 -1 19 -10
13 -9 16 8 21 14 4 18 10 13 23 -4 11 -3 15 4 11 7 -5 9 1 5 15 -4 15 -2 19 7
13 10 -6 10 -3 0 16 -11 22 -11 23 4 10 20 -16 23 -1 5 18 -10 11 -10 13 0 7
6 -4 12 -2 12 3 0 6 4 11 10 11 5 0 7 -8 4 -18 -5 -13 -4 -14 4 -3 12 17 4 43
-11 34 -6 -4 -7 -1 -3 6 5 7 14 10 20 8 13 -5 16 6 17 63 1 31 2 32 10 12 11
-28 19 -29 14 -1 -3 14 0 19 9 16 9 -4 12 2 10 19 -1 17 3 24 14 25 14 0 13 2
-3 9 -11 5 -14 9 -7 9 7 1 11 5 8 10 -3 5 4 12 17 15 22 6 22 6 2 22 -19 15
-19 15 10 8 28 -7 29 -7 12 10 -19 19 -23 31 -7 21 19 -12 41 15 30 35 -11 21
2 36 23 24 7 -5 6 0 -3 11 -13 17 -13 18 1 13 13 -5 16 -2 11 14 -3 14 -1 19
6 14 7 -4 12 -1 12 9 0 10 -5 13 -12 9 -7 -5 -8 -3 -4 5 5 7 14 10 20 8 7 -3
13 1 13 9 0 7 -5 11 -11 8 -6 -3 -2 2 9 11 11 9 19 23 17 32 -2 8 0 13 5 10 5
-3 7 13 6 36 l-2 42 20 -25 20 -25 -12 25 c-7 14 -12 29 -11 33 1 5 -8 6 -20
3 -13 -3 -17 -3 -10 0 6 3 12 15 12 26 0 16 -3 18 -13 9 -11 -8 -13 -5 -9 19
3 23 0 30 -12 30 -9 0 -15 4 -13 9 1 4 -9 18 -23 30 -14 12 -20 21 -15 20 23
-3 36 2 30 11 -4 6 -11 8 -16 5 -5 -4 -9 4 -9 16 0 12 -8 27 -17 34 -17 13
-28 50 -12 39 5 -3 6 -10 3 -16 -4 -7 -2 -8 4 -4 21 13 0 41 -29 38 -3 -1 -6
5 -6 13 0 7 7 11 16 8 14 -4 14 -3 1 9 -8 7 -17 20 -19 28 -5 24 -9 44 -10 53
-1 4 -8 7 -16 7 -8 0 -15 5 -15 11 0 5 6 7 13 3 6 -4 3 3 -8 16 -11 13 -15 21
-9 17 6 -3 11 0 11 7 0 9 -7 12 -16 8 -14 -5 -14 -4 -2 11 12 15 12 17 -1 12
-12 -5 -14 1 -10 26 3 18 1 29 -4 26 -5 -3 -14 6 -21 19 -9 20 -8 26 5 34 16
9 16 9 0 10 -11 0 -15 6 -11 20 3 13 0 20 -8 20 -11 0 -11 2 1 10 13 8 12 10
-3 10 -10 0 -16 4 -12 9 3 5 1 13 -5 16 -8 5 -7 12 2 23 11 13 11 15 -3 10
-10 -4 -16 -1 -16 8 0 8 7 14 16 15 11 0 9 3 -6 9 -15 6 -21 16 -19 34 2 14 0
26 -4 26 -4 0 -10 9 -13 20 -3 11 -1 18 4 14 12 -7 11 3 -2 27 -5 11 -14 17
-19 14 -4 -3 -6 5 -2 17 5 21 6 21 13 2 4 -10 8 -14 8 -7 2 20 -11 43 -19 38
-5 -3 -8 7 -7 22 2 16 -4 34 -13 41 -8 8 -10 11 -3 8 6 -4 14 -2 18 4 3 5 1
10 -5 10 -6 0 -8 5 -4 13 5 7 2 7 -10 -2 -15 -12 -17 -12 -14 0 2 8 10 17 18
21 13 6 12 7 -2 7 -12 1 -15 9 -14 31 2 30 -8 41 -17 18 -3 -7 -6 -2 -6 11 -1
18 -5 22 -20 18 -14 -3 -18 -1 -14 10 5 13 3 13 -16 3 -27 -14 -34 -9 -33 24
l0 25 -20 -22 c-11 -12 -16 -16 -12 -8 5 11 3 13 -11 7 -15 -5 -16 -4 -6 8 8
10 9 16 1 21 -5 3 -10 3 -10 -2 0 -4 -4 -3 -8 3 -5 8 -11 7 -22 -4 -13 -14
-12 -15 5 -8 15 5 17 4 8 -5 -17 -17 -37 -1 -22 17 7 9 8 14 3 12 -5 -1 -19 3
-30 10 -12 6 -24 8 -28 5 -3 -3 -6 0 -6 8 -1 10 -5 8 -16 -6 -16 -20 -16 -20
-9 3 4 16 3 22 -6 20 -7 -2 -13 2 -14 9 0 6 -4 15 -8 20 -5 4 -8 3 -7 -2 4
-20 0 -35 -10 -35 -5 0 -9 3 -9 8 4 24 -3 30 -32 27 -25 -4 -29 -2 -19 9 11
14 -1 31 -14 19 -11 -11 -36 -12 -36 -2 0 6 -6 7 -12 3 -9 -5 -9 -2 1 9 15 19
1 23 -17 5 -9 -9 -12 -7 -13 12 l-1 25 -8 -25 c-6 -18 -8 -20 -9 -7 -1 10 -5
15 -11 12 -5 -3 -10 -1 -10 6 0 8 -11 10 -32 5 -33 -6 -33 -5 -8 9 l25 14 -30
-1 c-48 -1 -55 1 -55 17 0 12 -9 15 -35 12 -28 -3 -33 -2 -24 9 8 9 5 15 -11
24 -11 6 -26 8 -33 5 -6 -4 -3 1 7 9 17 13 18 18 6 29 -10 10 -11 9 -5 -3 5
-8 4 -12 0 -7 -5 4 -10 17 -12 29 -3 18 -1 19 14 7 14 -11 13 -8 -2 10 -19 24
-20 24 -1 17 19 -6 19 -6 3 12 -9 10 -14 22 -10 26 4 4 1 11 -7 16 -11 7 -12
10 -2 10 7 0 11 4 7 9 -3 5 -1 12 4 16 6 3 8 -4 6 -15 -2 -12 0 -18 6 -14 6 3
8 9 5 12 -3 3 0 12 7 20 6 9 7 13 2 10 -6 -4 -18 0 -28 7 -16 11 -16 13 -2 19
11 4 14 2 9 -7 -4 -6 -3 -8 1 -4 15 14 15 39 -1 33 -8 -3 -14 -1 -14 4 0 6 5
10 11 10 8 0 7 5 -1 15 -7 9 -10 18 -6 22 3 3 6 1 6 -6 0 -7 4 -10 9 -6 5 3 8
17 5 31 -3 15 -1 23 5 20 6 -4 8 4 5 18 -2 14 0 28 6 31 6 4 8 11 4 16 -3 5
-9 7 -14 4 -5 -3 -4 8 1 25 6 16 13 30 16 30 3 0 3 -7 0 -15 -4 -8 -1 -17 5
-21 7 -4 8 -3 4 4 -4 7 -3 12 3 12 6 0 8 7 4 16 -5 14 -3 15 18 4 23 -13 23
-12 9 5 -9 11 -10 16 -3 11 7 -4 13 -2 13 4 0 7 7 7 22 -1 20 -11 21 -10 11 3
-10 12 -10 15 2 15 8 0 15 -4 15 -9 0 -4 4 -8 9 -8 5 0 7 10 5 23 -2 12 -2 16
2 10 3 -7 12 -13 20 -13 9 0 12 5 8 13 -6 10 -4 10 7 0 16 -16 29 -17 29 -2 0
5 -4 8 -8 5 -5 -3 -9 1 -9 9 0 9 5 11 11 6 13 -9 79 6 72 17 -3 4 5 9 17 9 15
2 18 0 9 -6 -11 -7 -11 -9 2 -14 9 -4 15 -1 13 6 -1 7 6 11 15 11 21 -2 24 12
6 20 -7 3 0 2 16 -1 19 -4 27 -2 22 5 -3 6 -1 14 5 18 7 4 9 3 6 -2 -3 -6 -2
-16 4 -24 6 -10 9 -11 9 -2 0 6 7 12 15 12 8 0 15 6 15 13 0 8 4 7 10 -3 7
-11 10 -11 10 -2 0 7 4 11 9 8 5 -4 11 -1 13 6 2 6 12 12 21 14 9 1 15 -1 12
-6 -7 -11 22 -7 32 5 4 4 1 5 -7 0 -12 -7 -13 -6 -2 6 11 12 14 12 22 -1 8
-12 10 -11 10 5 0 17 2 17 10 5 8 -13 10 -12 10 3 0 9 4 17 10 17 5 0 7 -8 4
-17 -3 -10 2 -7 10 7 8 14 15 20 16 14 0 -6 7 -11 15 -11 11 0 12 4 3 14 -9
11 -7 12 7 7 13 -6 16 -4 10 6 -5 8 -3 11 6 8 8 -3 13 -11 11 -17 -1 -7 2 -9
8 -6 6 4 9 13 6 21 -5 12 -2 12 17 3 20 -11 21 -11 8 5 -12 15 -12 17 0 14 8
-2 16 -6 19 -9 3 -4 14 5 24 19 12 16 14 23 5 18 -8 -4 -4 1 9 11 21 17 22 21
8 32 -17 14 -12 36 6 25 7 -5 9 0 6 14 -4 13 -1 22 5 22 6 0 8 3 4 6 -3 4 1
13 9 21 8 8 12 19 8 24 -3 6 0 17 8 26 11 14 11 16 -1 9 -9 -6 -12 -5 -9 5 3
8 11 13 17 11 9 -2 9 3 2 15 -7 13 -4 25 11 45 18 26 18 27 1 22 -12 -4 -10
-1 6 11 23 18 23 19 5 33 -16 13 -17 14 -1 9 14 -5 17 -1 17 23 0 17 5 30 11
30 5 0 7 -5 3 -12 -4 -6 -3 -8 3 -5 6 4 8 19 5 33 -4 22 -2 26 11 21 11 -4 14
-2 10 8 -3 8 -10 12 -17 8 -7 -4 -7 -1 1 9 7 8 11 17 8 20 -3 2 2 5 10 5 10 0
14 -6 10 -16 -5 -13 -4 -13 6 -4 9 9 9 16 1 26 -8 10 -6 20 8 41 10 16 16 36
12 44 -4 11 -1 14 11 9 15 -6 16 -4 6 14 -6 12 -7 19 -1 15 5 -3 13 1 16 10 3
8 2 13 -2 10 -4 -2 -8 4 -8 14 0 14 4 16 13 9 9 -8 14 -4 19 15 3 13 3 30 -1
36 -5 8 0 8 16 -1 20 -10 22 -10 13 2 -15 21 -11 44 8 43 11 -1 15 5 13 18 -3
14 0 18 10 14 11 -4 12 0 5 20 -9 23 -8 24 11 13 15 -7 19 -8 15 0 -4 6 -2 20
5 32 8 15 8 19 0 15 -6 -4 -11 -2 -11 5 0 7 8 9 21 6 16 -4 18 -3 9 8 -8 10
-7 14 2 18 11 4 10 7 0 15 -11 7 -11 10 3 15 9 4 13 3 10 -3 -3 -6 -4 -10 -1
-10 3 0 10 10 17 22 10 18 9 20 -7 14 -17 -5 -17 -5 -3 6 9 7 14 20 11 28 -3
9 2 7 13 -5 9 -11 14 -14 10 -7 -3 6 -1 12 6 12 7 0 4 7 -7 15 -18 14 -18 14
4 10 19 -3 21 -1 12 15 -8 15 -6 22 9 32 14 10 17 18 10 28 -7 13 -9 13 -9 1
0 -8 -3 -11 -6 -8 -4 4 -1 13 6 22 10 12 10 15 0 15 -8 0 -11 10 -8 28 3 19 0
29 -9 29 -6 0 -10 -4 -7 -9 3 -4 -2 -5 -11 -2 -14 6 -14 8 2 20 12 9 14 13 5
14 -7 0 -10 5 -7 10 3 6 1 10 -6 10 -8 0 -7 5 2 16 12 15 11 16 -11 9 -22 -7
-23 -6 -12 7 10 13 10 17 -4 22 -16 6 -16 8 0 25 13 15 14 18 1 18 -8 0 -12
-3 -10 -7 2 -4 -1 -7 -8 -7 -7 0 -13 8 -13 18 0 10 3 17 6 16 3 -1 5 3 5 8 0
6 -5 9 -13 7 -10 -2 -11 2 -4 15 10 20 5 46 -8 38 -4 -3 -11 2 -14 11 -3 8 -2
12 4 9 15 -10 12 5 -6 22 -8 9 -13 22 -10 30 4 9 2 11 -6 7 -7 -5 -9 0 -6 14
4 14 2 22 -6 22 -7 0 -18 11 -24 25 -6 14 -17 25 -24 25 -7 1 -2 7 12 15 l25
14 -25 1 c-23 1 -23 2 -5 10 19 8 19 9 -2 9 -17 1 -22 6 -20 24 1 13 -3 21
-11 19 -9 -1 -7 6 5 25 17 27 17 27 0 14 -10 -8 -20 -11 -24 -7 -3 3 -1 6 6 6
7 0 9 5 6 10 -3 6 -1 10 4 10 6 0 11 5 11 10 0 7 -6 7 -20 0 -14 -7 -20 -7
-20 0 0 5 4 10 9 10 5 0 7 9 4 21 -4 13 -8 17 -13 9 -5 -8 -9 -7 -13 5 -4 9
-3 14 2 11 5 -3 11 3 14 15 4 16 3 18 -8 9 -9 -8 -15 -8 -20 0 -3 5 0 13 9 16
8 3 17 13 21 22 5 14 4 15 -6 5 -7 -7 -17 -13 -22 -13 -17 0 23 31 42 33 12 1
17 6 13 16 -4 10 -1 12 9 6 11 -7 11 -5 -1 10 -8 10 -10 16 -4 12 7 -4 14 0
18 8 3 8 13 15 22 15 10 0 14 5 11 14 -4 10 -1 13 9 9 7 -3 14 -10 14 -16 0
-6 3 -7 6 -4 4 4 1 14 -7 24 -9 11 -10 14 -1 9 7 -4 12 -2 12 8 0 8 4 18 10
21 6 4 7 -1 3 -12 -4 -14 -3 -15 6 -7 7 6 13 20 14 31 1 14 6 19 16 15 9 -3
12 -1 7 6 -4 7 -2 12 4 12 6 0 15 10 21 23 l10 22 -5 -22 c-2 -13 0 -26 5 -29
5 -3 9 -2 8 3 -3 20 2 34 10 28 6 -3 8 3 6 14 -2 13 1 18 10 15 20 -8 29 14
13 34 -12 15 -11 16 5 3 16 -12 22 -9 18 12 -1 5 3 6 9 2 6 -3 7 -12 3 -18 -5
-9 -3 -9 8 0 26 21 64 6 79 -31 8 -20 9 -20 10 -1 0 17 2 17 10 5 5 -8 15 -15
22 -15 7 -1 12 -6 10 -13 -2 -13 14 -17 20 -4 2 4 14 -4 28 -17 14 -13 18 -20
10 -16 -13 8 -13 7 0 -9 13 -17 14 -17 21 1 7 17 8 17 8 0 1 -10 12 -22 26
-27 14 -5 25 -12 25 -15 0 -4 -5 -3 -12 1 -7 4 -8 3 -4 -5 6 -9 11 -9 21 -1
14 12 55 -6 55 -24 0 -4 -6 -3 -14 3 -11 9 -16 9 -22 0 -4 -7 -3 -9 4 -5 6 3
13 2 17 -3 3 -6 11 -8 18 -5 7 2 21 -3 32 -11 19 -15 19 -16 -5 -5 -23 10 -24
10 -6 -4 14 -11 24 -13 38 -5 10 5 18 6 17 2 -5 -27 3 -35 28 -30 26 5 26 4 8
-9 -17 -13 -17 -14 -1 -14 10 0 14 -4 10 -12 -4 -7 -3 -8 5 -4 6 4 9 11 7 15
-3 4 1 8 9 8 8 0 12 -4 9 -9 -3 -4 0 -8 6 -8 6 0 8 -5 4 -11 -4 -8 1 -9 17 -4
21 7 22 6 10 -9 -12 -14 -12 -16 3 -10 9 3 16 1 16 -5 0 -6 11 -11 25 -11 14
0 25 -6 25 -14 0 -8 9 -12 25 -11 14 2 23 -1 19 -6 -3 -5 -10 -7 -15 -4 -5 3
-6 -1 -2 -10 5 -13 7 -14 14 -3 5 7 9 9 9 4 0 -6 7 -1 16 10 8 10 13 14 10 8
-3 -7 5 -14 19 -16 20 -4 23 -3 14 8 -8 10 -6 12 10 9 14 -3 21 1 21 12 0 14
2 14 15 -3 15 -19 15 -19 8 0 -5 15 -3 18 10 13 11 -4 14 -2 11 7 -7 17 17 26
53 20 l28 -4 -24 14 c-15 8 -20 16 -12 20 6 4 11 2 11 -5 0 -8 5 -7 17 2 14
12 16 12 9 -1 -4 -8 1 -5 10 8 16 21 17 21 30 5 13 -17 14 -17 7 2 -3 11 -3
17 2 13 4 -4 17 -1 29 7 25 18 40 19 30 3 -4 -7 -3 -8 4 -4 9 5 9 13 0 29 -10
20 -10 21 5 8 15 -12 17 -11 17 3 0 9 5 16 11 16 5 0 7 -6 3 -12 -6 -10 -4
-10 7 0 16 15 33 16 23 0 -4 -7 -3 -8 4 -4 6 4 9 13 6 20 -3 8 0 17 7 22 8 4
10 3 5 -4 -4 -7 -3 -12 1 -12 5 0 14 9 21 20 7 12 17 18 22 15 5 -3 11 -1 15
4 3 6 13 7 22 4 11 -5 14 -3 8 6 -6 10 -3 11 14 2 15 -8 21 -9 21 -1 0 6 5 8
12 4 8 -5 9 -2 5 9 -3 9 -1 19 5 23 6 4 8 3 5 -2 -3 -6 -2 -16 4 -24 7 -13 9
-12 9 3 0 9 6 18 13 18 50 5 71 9 76 16 10 13 54 35 46 24 -3 -6 -2 -11 3 -11
6 0 12 7 16 15 3 8 11 15 17 15 8 0 7 -6 -2 -17 -13 -16 -12 -17 3 -5 10 8 23
10 30 6 8 -5 8 -1 -2 11 -14 17 -14 18 10 5 22 -12 24 -12 12 2 -11 13 -8 15
24 11 19 -2 33 0 30 5 -2 4 5 9 17 9 17 2 18 0 7 -7 -11 -7 -10 -9 7 -7 12 0
19 5 16 10 -3 5 0 7 8 5 8 -3 20 2 27 11 8 9 11 11 8 5 -3 -7 5 -10 22 -9 18
1 27 7 26 18 -1 9 2 14 7 11 5 -3 19 1 31 8 13 7 27 11 31 10 5 -1 6 2 2 8 -3
5 1 13 9 16 12 5 13 10 5 25 -9 18 -5 24 16 19 5 -1 1 9 -10 22 -11 13 -16 20
-11 16 5 -4 15 -3 23 3 11 10 11 15 1 27 -10 13 -10 14 0 8 6 -4 12 -2 12 3 0
6 5 10 12 8 15 -3 18 21 5 47 -6 12 -6 16 1 12 6 -3 13 3 17 14 4 11 11 17 17
14 7 -4 8 -2 4 5 -6 9 -11 9 -23 -1 -15 -12 -15 -11 -3 9 8 12 17 20 20 18 12
-7 9 40 -3 48 -8 6 -7 7 4 4 22 -7 42 35 26 53 -9 10 -9 11 0 6 6 -3 15 -1 20
6 11 18 13 39 3 33 -5 -3 -12 0 -16 6 -4 8 -3 9 4 5 7 -4 12 -2 12 4 0 6 4 9
9 5 5 -3 13 0 17 6 4 7 3 9 -4 5 -6 -3 -13 -2 -17 4 -3 6 3 10 15 10 19 0 20
1 6 16 -21 21 -20 27 2 15 15 -8 18 -6 17 10 -1 11 -8 25 -16 31 -10 7 -5 8
16 3 l30 -7 -25 22 -25 22 30 -8 c28 -7 29 -7 12 10 -9 10 -17 20 -17 23 0 4
3 3 7 0 3 -4 12 -2 20 4 10 9 10 15 2 25 -9 11 -8 14 0 14 7 0 9 5 5 12 -5 7
-2 9 8 5 14 -5 15 -1 8 23 -6 20 -5 29 2 27 6 -1 13 4 16 12 3 8 0 11 -7 7 -6
-4 -11 -5 -11 -2 0 3 15 13 33 21 24 11 26 14 7 9 l-25 -5 25 15 c14 8 27 11
30 7 6 -9 39 -11 60 -4 24 8 70 9 70 1 0 -5 -5 -8 -11 -8 -5 0 -7 -5 -3 -11 5
-8 9 -8 14 1 5 7 17 10 30 7 18 -5 19 -3 8 11 -11 13 -11 14 2 7 8 -5 21 -10
29 -12 8 -1 17 -7 21 -13 6 -9 9 -9 12 1 4 12 8 11 23 -1 10 -8 16 -10 12 -4
-8 13 11 23 31 17 6 -3 9 -10 5 -16 -4 -7 2 -5 12 3 11 9 16 10 11 3 -4 -7 -2
-13 3 -13 6 0 11 5 11 10 0 6 6 5 14 -2 8 -7 12 -16 9 -20 -2 -5 5 -8 16 -8
12 0 21 -4 21 -10 0 -5 -8 -10 -17 -10 -17 -1 -17 -1 0 -11 12 -7 16 -17 12
-32 -5 -17 -4 -19 4 -7 9 12 11 9 11 -15 0 -17 6 -37 13 -44 6 -8 7 -11 1 -8
-6 3 -11 -1 -11 -9 0 -8 6 -13 13 -10 8 3 16 0 20 -6 4 -7 3 -8 -4 -4 -20 12
-14 -22 6 -34 13 -9 13 -10 1 -7 -9 3 -16 -1 -16 -9 0 -7 4 -11 9 -8 8 5 12
-10 9 -34 -1 -8 6 -21 16 -29 10 -8 13 -12 6 -9 -6 4 -14 2 -18 -4 -3 -5 -1
-10 4 -10 15 0 14 -27 -1 -34 -7 -3 -3 -3 10 0 20 5 21 3 12 -21 -7 -17 -7
-24 0 -20 6 3 10 -1 10 -10 0 -10 5 -13 13 -9 6 4 9 4 5 -1 -4 -4 -3 -14 3
-22 9 -10 7 -13 -7 -13 -18 -1 -18 -1 -1 -11 9 -6 15 -15 12 -20 -4 -5 -12 -6
-18 -2 -7 4 -6 0 2 -10 17 -22 31 -22 32 1 0 11 2 12 6 4 3 -7 0 -18 -5 -25
-11 -13 -11 -42 1 -53 4 -4 2 -13 -4 -20 -7 -8 -6 -14 2 -20 8 -4 9 -3 5 4 -4
7 -1 12 8 12 12 0 14 -5 6 -26 -6 -14 -6 -23 -2 -20 5 3 15 -3 24 -13 14 -16
13 -19 -3 -29 -17 -11 -17 -13 4 -51 12 -22 25 -37 30 -34 4 2 7 1 6 -4 -4
-22 3 -31 21 -26 12 3 20 0 20 -6 0 -7 6 -11 13 -10 20 4 67 -23 60 -34 -3 -6
-1 -7 5 -4 13 9 44 -2 37 -13 -3 -4 2 -13 10 -20 10 -9 15 -9 15 -1 0 6 -5 11
-11 11 -5 0 -7 5 -4 10 4 7 14 2 26 -11 13 -15 19 -17 19 -8 0 11 2 12 9 1 4
-8 12 -13 17 -12 4 1 11 -7 15 -17 7 -17 8 -17 9 2 1 19 2 18 10 -2 9 -23 40
-32 40 -13 0 5 -7 7 -15 4 -8 -4 -15 -2 -15 4 0 20 35 5 38 -16 2 -12 8 -22
13 -22 6 0 7 4 4 10 -3 6 1 7 9 4 9 -3 14 -10 11 -14 -3 -5 0 -12 6 -16 8 -4
9 -3 5 4 -4 7 -1 12 9 12 9 0 13 -5 9 -11 -3 -6 1 -10 12 -9 32 4 45 0 40 -9
-3 -5 1 -12 10 -15 8 -3 12 -2 9 4 -3 5 1 7 9 4 8 -3 18 -14 21 -25 4 -10 10
-19 15 -19 5 0 7 7 4 15 -4 8 -1 15 6 15 6 0 8 -5 5 -10 -3 -6 1 -13 9 -16 9
-3 14 -9 12 -13 -2 -3 7 -7 20 -7 23 -2 24 -1 7 13 -16 13 -16 13 5 3 12 -6
20 -15 17 -19 -7 -12 22 -34 35 -26 12 7 53 -19 43 -28 -3 -4 -1 -7 5 -7 7 0
12 5 12 10 0 6 4 10 8 10 5 0 9 -7 9 -15 0 -8 -5 -15 -10 -15 -6 0 -7 -3 -4
-6 4 -4 13 -2 20 5 12 9 19 5 38 -19 23 -28 48 -43 33 -18 -4 7 -3 8 4 4 6 -4
8 -14 5 -24 -6 -15 -5 -16 12 -2 14 11 17 11 11 1 -7 -10 -3 -12 15 -6 19 5
21 4 9 -4 -13 -10 -13 -12 0 -20 8 -5 18 -7 22 -5 4 3 8 -3 8 -13 0 -15 2 -16
10 -3 8 13 10 13 10 -2 0 -9 4 -20 10 -23 5 -3 8 0 7 7 -2 7 -2 10 0 5 3 -4
10 -4 15 -1 6 4 8 2 5 -4 -10 -15 1 -39 18 -39 8 0 12 4 9 9 -5 7 20 1 41 -11
18 -10 35 -9 35 2 0 5 3 7 7 3 4 -3 13 4 21 16 7 13 11 16 9 8 -3 -10 3 -15
21 -17 14 0 21 2 16 5 -17 13 -15 32 3 25 10 -4 14 -2 10 4 -3 5 1 10 9 10 9
0 13 -6 10 -14 -3 -8 -1 -11 4 -8 6 3 10 12 10 20 0 9 8 12 21 10 15 -3 19 0
15 10 -3 8 -2 14 2 14 18 -3 33 2 28 9 -3 5 1 9 8 9 8 0 12 -7 8 -15 -3 -10
-1 -13 6 -8 7 4 12 14 12 22 0 8 5 14 11 14 5 0 7 -6 3 -12 -6 -10 -5 -10 8
-1 8 7 18 10 22 6 4 -4 4 0 0 10 -5 13 -2 16 12 10 12 -4 15 -3 10 5 -5 8 -1
10 10 5 12 -4 15 -3 10 5 -4 7 -2 12 3 12 6 0 11 -4 11 -10 0 -5 4 -10 10 -10
5 0 7 6 4 14 -4 9 2 13 21 11 22 -3 24 -1 14 11 -6 8 -9 17 -5 21 3 3 6 1 6
-5 0 -7 7 -12 16 -12 8 0 13 4 10 9 -3 5 0 14 7 20 10 8 14 7 14 -4 0 -8 -5
-11 -10 -8 -6 3 -7 1 -3 -6 10 -15 26 -5 27 17 0 11 2 12 6 4 2 -6 9 -9 14 -6
6 3 5 12 -3 22 -10 13 -8 13 9 -1 15 -13 23 -15 28 -7 4 6 13 9 19 7 7 -3 19
-1 27 5 11 8 10 9 -3 4 -10 -3 -18 -1 -18 4 0 6 5 10 11 10 5 0 7 6 3 13 -5 8
-2 8 9 -2 12 -9 17 -10 17 -2 0 7 5 9 10 6 6 -4 7 -12 3 -18 -4 -7 0 -6 10 2
9 7 17 19 17 25 0 6 -5 4 -10 -4 -5 -8 -10 -10 -10 -4 0 19 13 24 28 11 13
-10 15 -9 9 6 -3 9 -2 17 3 17 6 0 10 -4 10 -10 0 -5 5 -10 11 -10 5 0 7 5 4
10 -3 6 -1 10 5 10 6 0 8 5 5 10 -3 6 -1 10 4 10 6 0 11 -4 11 -9 0 -5 7 -11
14 -14 10 -4 13 -1 9 9 -3 7 0 14 6 14 6 0 10 -3 10 -7 -3 -20 2 -34 10 -29 5
3 12 -1 15 -10 4 -10 12 -14 24 -9 13 5 14 4 5 -6 -10 -10 -16 -9 -30 1 -10 8
-6 2 9 -13 15 -15 33 -27 40 -27 9 0 9 -3 -2 -10 -12 -8 -11 -10 6 -10 22 0
39 -24 35 -49 -2 -9 3 -12 13 -8 9 4 15 3 14 -1 -5 -16 24 -52 35 -45 9 5 8 2
-1 -9 -10 -13 -9 -15 13 -13 14 2 23 0 20 -5 -2 -4 4 -15 15 -25 10 -9 16 -23
14 -30 -3 -7 2 -20 11 -29 19 -19 6 -22 -15 -3 -9 7 -8 4 1 -8 16 -20 15 -50
-1 -40 -5 3 -12 1 -15 -5 -4 -6 -3 -10 2 -9 22 4 25 -2 7 -15 -10 -8 -19 -20
-19 -28 -1 -7 -7 -12 -14 -10 -7 1 -10 -2 -6 -7 3 -6 11 -9 18 -7 7 1 9 1 4
-1 -4 -3 -4 -10 -1 -15 4 -6 3 -9 -2 -5 -5 3 -15 -6 -21 -19 -10 -22 -9 -26
10 -33 12 -5 30 -5 39 0 21 11 37 11 20 0 -10 -6 -9 -10 7 -14 12 -3 24 0 28
5 3 6 2 8 -4 5 -5 -3 -10 0 -10 7 0 10 6 10 23 2 13 -7 18 -13 12 -17 -6 -4 0
-6 15 -6 20 2 23 5 14 16 -10 12 -8 12 13 1 14 -7 27 -13 30 -13 3 1 7 -1 10
-4 3 -4 0 -3 -7 1 -6 3 -14 2 -17 -3 -4 -5 2 -8 11 -7 10 2 18 8 18 14 0 7 4
11 10 10 5 -2 9 -6 8 -10 -1 -3 5 -12 15 -20 15 -12 16 -11 4 4 -9 11 -10 18
-2 23 5 3 10 1 10 -6 0 -10 3 -10 12 -1 17 17 33 15 18 -3 -11 -13 -10 -14 4
-9 9 3 16 11 16 18 0 6 5 3 11 -6 6 -11 16 -15 26 -11 12 5 14 3 8 -8 -7 -11
-6 -12 6 -2 8 6 18 13 24 15 5 1 9 7 7 11 -1 5 3 5 10 1 23 -15 50 -15 42 -2
-9 14 26 -10 38 -27 5 -6 8 -6 8 1 0 19 28 24 45 8 13 -14 15 -14 15 3 0 14 2
15 9 4 5 -8 7 -21 4 -30 -4 -11 0 -9 10 4 8 11 13 23 11 27 -2 3 4 5 13 4 9
-2 19 -8 21 -14 2 -7 8 -12 13 -12 6 0 8 4 5 8 -3 5 1 9 10 9 10 0 12 -7 8
-21 -6 -19 -4 -18 16 4 15 17 20 20 16 8 -3 -10 -1 -18 4 -18 6 0 10 5 10 10
0 6 4 10 10 10 5 0 9 -5 7 -11 -1 -6 6 -13 16 -14 9 -2 15 1 11 6 -3 5 -9 7
-13 5 -3 -3 -7 4 -7 15 0 18 2 18 12 5 6 -9 23 -16 38 -16 14 0 26 -5 26 -11
0 -5 4 -8 10 -4 5 3 6 13 3 23 -6 14 -4 14 13 -2 17 -18 19 -18 22 -3 2 10 8
15 13 11 5 -3 6 -10 3 -16 -4 -7 -2 -8 4 -4 6 4 8 14 5 23 -4 10 -2 14 4 10 6
-4 14 0 17 9 10 25 7 36 -6 29 -7 -4 -2 2 12 13 13 11 29 18 34 15 5 -3 6 -1
2 6 -6 9 -12 9 -24 -1 -15 -11 -15 -11 -5 3 7 9 9 19 5 23 -4 4 -1 6 7 4 7 -2
16 3 19 11 3 9 0 11 -8 6 -9 -6 -11 -4 -6 4 5 7 14 10 21 7 14 -5 15 11 1 33
-5 8 -5 12 0 9 5 -3 15 0 22 8 10 11 10 14 0 14 -9 0 -9 3 2 9 8 6 18 7 22 5
4 -3 5 1 2 9 -3 8 0 18 6 22 8 5 8 10 0 20 -8 9 -8 15 0 20 6 3 7 11 4 17 -4
7 -2 8 5 4 9 -6 9 -12 -1 -24 -12 -15 -11 -15 4 -4 15 12 16 50 2 73 -2 4 4
13 13 18 15 9 14 10 -9 7 -15 -3 -31 0 -34 6 -4 6 -3 9 2 6 5 -3 15 1 22 8 12
13 10 14 -11 9 -18 -5 -26 -2 -31 11 -6 15 -4 15 11 3 14 -10 16 -10 6 0 -6 7
-10 19 -9 25 2 6 1 8 -1 4 -3 -5 -10 -8 -16 -8 -5 0 -7 3 -4 6 12 12 -14 46
-30 40 -14 -6 -14 -4 -2 11 12 14 12 16 0 8 -11 -6 -13 -4 -8 9 4 11 3 15 -4
10 -17 -10 -57 35 -54 62 1 13 -2 21 -7 18 -15 -10 -37 16 -33 39 4 21 4 21
-14 -2 l-18 -24 2 44 c1 24 0 38 -2 32 -7 -20 -23 -15 -23 7 0 11 -5 20 -11
20 -5 0 -7 -5 -3 -12 4 -7 3 -8 -4 -4 -6 4 -9 13 -6 21 4 8 11 12 18 8 6 -4 5
1 -3 10 -7 9 -17 14 -22 11 -5 -3 -9 0 -9 6 0 6 -4 8 -10 5 -5 -3 -10 2 -10
12 0 10 -10 23 -22 28 -12 6 -23 17 -26 25 -3 13 -2 13 7 0 13 -18 14 -1 2 19
-7 11 -11 10 -20 -5 -11 -17 -11 -16 -5 5 5 19 3 23 -10 18 -8 -3 -18 -1 -22
5 -4 7 -3 8 4 4 7 -4 12 -3 12 2 0 6 -7 13 -16 16 -9 3 -12 11 -8 18 5 8 2 9
-9 5 -12 -4 -14 -2 -10 10 5 12 3 14 -8 8 -11 -7 -11 -5 1 10 9 11 10 16 3 11
-13 -7 -17 3 -14 34 2 13 1 13 -8 0 -5 -8 -7 -18 -5 -22 3 -4 1 -8 -4 -8 -6 0
-13 7 -16 16 -3 8 -2 12 4 9 6 -3 10 -1 10 4 0 6 -8 11 -19 11 -25 0 -41 21
-44 57 -1 23 -6 29 -19 25 -12 -3 -18 1 -18 12 0 10 -4 14 -10 11 -5 -3 -10
-1 -10 5 0 6 -4 9 -9 6 -4 -3 -7 6 -5 20 2 21 0 23 -12 13 -17 -14 -19 2 -1
20 10 11 8 12 -9 3 -16 -9 -21 -8 -21 3 0 8 5 11 10 8 6 -3 7 -1 3 5 -4 7 -14
12 -22 12 -9 0 -12 5 -8 12 5 8 2 9 -11 4 -15 -5 -16 -4 -5 9 10 13 9 15 -8
15 -11 0 -26 8 -33 17 -10 11 -10 14 -1 9 6 -4 12 -2 12 3 0 11 -15 15 -34 12
-5 -1 -4 4 2 12 16 19 3 30 -16 14 -13 -10 -15 -9 -9 5 7 21 -19 51 -36 41 -8
-4 -8 -2 1 9 10 13 9 18 -5 29 -11 9 -14 10 -9 2 4 -7 2 -13 -3 -13 -6 0 -11
9 -11 20 0 11 -5 20 -11 20 -5 0 -7 -5 -3 -12 4 -7 3 -8 -4 -4 -6 4 -9 12 -6
19 7 18 -31 51 -48 42 -10 -6 -10 -5 -1 5 10 11 7 17 -17 32 -17 10 -34 28
-39 41 -5 12 -19 31 -32 42 -12 11 -19 14 -15 8 4 -8 1 -13 -8 -13 -8 0 -17 8
-19 18 -4 16 -5 16 -6 -1 0 -10 -5 -15 -11 -12 -5 3 -10 2 -10 -3 0 -6 -7 -13
-16 -16 -14 -5 -15 -4 -4 9 7 9 10 18 6 22 -3 3 -6 1 -6 -5 0 -7 -7 -12 -16
-12 -8 0 -13 -3 -11 -7 3 -5 -1 -14 -9 -21 -14 -13 -19 -5 -15 21 1 5 -3 6 -9
2 -6 -3 -8 -11 -5 -16 4 -5 1 -17 -5 -26 -11 -17 -11 -17 -6 1 6 16 4 17 -9 6
-8 -7 -15 -9 -15 -4 0 4 -5 3 -11 -3 -6 -6 -17 -10 -23 -9 -6 2 -8 1 -3 -1 17
-10 5 -23 -18 -19 -15 3 -23 1 -20 -5 4 -5 0 -16 -8 -24 -13 -13 -16 -13 -21
1 -5 13 -9 14 -20 5 -8 -7 -20 -10 -27 -9 -8 2 -13 -3 -11 -11 2 -9 -3 -11
-13 -7 -9 3 -13 2 -10 -4 3 -6 1 -10 -5 -10 -6 0 -8 -5 -5 -10 8 -13 -18 -8
-27 5 -4 6 -8 0 -8 -12 0 -12 -4 -25 -10 -28 -5 -3 -7 0 -4 8 3 8 -1 14 -10
14 -8 0 -13 -4 -10 -9 3 -4 0 -8 -6 -8 -6 0 -8 -5 -4 -11 4 -7 1 -10 -7 -7 -8
3 -13 11 -11 17 1 7 -2 10 -8 6 -6 -3 -8 -11 -5 -16 4 -5 3 -9 -2 -10 -29 -3
-48 -9 -51 -18 -2 -5 -10 -7 -19 -4 -11 4 -14 2 -9 -5 10 -16 -17 -15 -33 1
-10 10 -12 9 -9 -3 2 -8 -2 -14 -9 -13 -6 1 -14 -5 -17 -14 -6 -14 -4 -14 19
1 14 9 25 13 25 8 0 -17 -47 -31 -59 -19 -9 9 -11 8 -6 -5 5 -13 2 -18 -10
-18 -10 0 -13 4 -9 13 6 9 5 9 -8 0 -8 -7 -17 -10 -21 -7 -3 3 -3 -5 0 -18 5
-23 5 -23 -11 -3 -15 19 -16 19 -9 1 4 -11 2 -17 -3 -13 -6 3 -16 2 -24 -3 -9
-5 -20 -4 -30 3 -12 9 -13 9 -2 -3 6 -8 12 -21 11 -30 0 -10 -2 -11 -6 -2 -7
19 -26 14 -19 -5 5 -15 4 -15 -9 1 -14 19 -15 19 -15 2 0 -14 -3 -16 -13 -7
-8 6 -17 8 -20 4 -4 -3 -15 0 -24 8 -16 13 -17 12 -4 -3 8 -11 9 -18 3 -18 -6
0 -14 5 -17 10 -5 8 -12 7 -23 -2 -13 -11 -14 -11 -4 8 10 19 9 21 -15 18 -15
-1 -34 2 -43 7 -12 8 -11 9 5 5 11 -3 27 -1 35 5 12 8 11 9 -6 4 -14 -3 -24 0
-27 8 -3 8 -18 13 -36 12 -27 -2 -29 0 -19 19 9 17 8 19 -3 9 -7 -7 -19 -13
-27 -13 -12 0 -12 3 -2 15 7 9 10 18 6 22 -3 3 -6 1 -6 -6 0 -7 -5 -9 -10 -6
-6 4 -7 11 -4 17 4 7 2 8 -4 4 -6 -4 -8 -14 -5 -24 6 -16 6 -16 -11 1 -16 16
-30 21 -49 18 -5 -1 -6 3 -2 9 4 7 13 7 28 -1 21 -10 21 -9 3 5 -10 9 -23 13
-28 10 -5 -3 -15 0 -23 6 -8 7 -22 10 -30 6 -9 -3 -13 -2 -10 4 3 6 -1 13 -9
16 -9 3 -13 11 -9 18 5 7 2 7 -8 -1 -9 -8 -20 -9 -29 -3 -10 7 -11 10 -2 10 6
0 12 5 12 11 0 6 -7 9 -15 6 -8 -4 -17 -1 -21 5 -4 7 -3 8 4 4 7 -4 12 -2 12
3 0 6 -4 11 -10 11 -5 0 -10 5 -10 11 0 5 5 7 10 4 16 -10 11 1 -7 16 -11 10
-14 10 -9 2 4 -7 2 -13 -3 -13 -15 0 -14 13 2 29 10 11 10 13 0 7 -13 -7 -17
4 -14 32 1 6 -3 12 -9 12 -5 0 -10 5 -10 11 0 6 7 9 14 6 10 -4 13 -1 9 8 -3
8 -9 12 -14 9 -5 -3 -9 -1 -9 5 0 5 6 12 13 14 6 3 3 6 -8 6 -17 1 -17 3 -5
11 13 8 12 10 -2 10 -10 0 -18 4 -18 10 0 5 8 7 18 3 15 -5 15 -4 2 8 -23 20
-47 54 -33 46 6 -4 14 -3 18 3 3 5 1 10 -5 10 -7 0 -9 8 -5 20 5 16 2 20 -17
21 -18 1 -19 2 -5 6 18 5 18 5 0 20 -10 8 -12 12 -5 8 6 -3 12 -1 12 4 0 6 -4
11 -10 11 -5 0 -10 5 -10 11 0 5 5 7 10 4 6 -3 10 -2 10 2 0 5 -9 14 -20 21
-21 13 -27 32 -9 32 5 0 7 -4 4 -10 -3 -5 -1 -10 4 -10 15 0 13 10 -10 50 -11
19 -17 26 -14 15 5 -16 4 -18 -6 -7 -10 9 -10 15 -2 23 9 9 6 17 -10 31 -12
11 -17 17 -10 14 6 -4 13 -3 16 1 2 5 2 1 0 -7 -4 -12 -2 -13 9 -2 11 11 9 17
-9 31 -17 14 -19 21 -10 31 10 10 8 12 -6 7 -10 -4 -16 -3 -12 2 3 5 2 11 -2
14 -5 2 -2 2 5 1 6 -2 12 1 12 6 0 6 -8 10 -17 10 -15 0 -16 2 -3 10 8 5 10
10 4 10 -15 0 -23 44 -12 64 6 11 5 14 -5 10 -8 -3 -14 2 -14 10 0 8 4 13 9
10 15 -10 8 9 -9 23 -10 8 -13 12 -6 9 16 -8 10 24 -7 34 -7 5 -15 16 -16 24
-1 9 2 14 7 11 5 -4 6 1 3 9 -3 9 -11 13 -18 9 -6 -4 -6 0 2 9 10 13 10 18 1
24 -8 5 -9 3 -4 -6 6 -9 4 -11 -5 -5 -10 6 -9 11 4 21 16 11 16 13 -6 20 -13
4 -29 7 -35 6 -8 -2 -11 4 -8 15 3 10 0 8 -6 -4 -13 -26 -32 -32 -23 -8 5 11
2 13 -10 9 -9 -3 -13 -11 -9 -17 7 -12 -13 -1 -41 22 -18 14 -19 15 -14 0 4
-10 0 -16 -9 -16 -9 0 -18 9 -21 19 -2 10 -8 15 -13 13 -4 -3 -5 -13 -2 -22 6
-15 5 -16 -9 -3 -9 8 -13 20 -10 25 3 6 -1 4 -10 -3 -12 -10 -17 -10 -20 -1
-2 7 -12 9 -26 5 -13 -4 -19 -12 -16 -18 5 -7 2 -8 -5 -3 -9 5 -10 10 -2 18 6
6 11 16 11 21 0 6 -4 5 -9 -3 -8 -13 -12 -13 -27 0 -10 8 -15 9 -11 3 4 -7 -1
-18 -10 -25 -9 -8 -14 -9 -11 -4 3 6 0 15 -7 22 -10 10 -14 9 -19 -3 -4 -10
-2 -13 7 -8 6 4 8 3 4 -1 -4 -5 -14 -10 -23 -11 -11 -2 -12 1 -4 11 8 10 8 15
-1 21 -8 4 -9 3 -5 -4 4 -7 3 -12 -3 -12 -5 0 -12 6 -14 13 -3 7 -6 4 -6 -7
-1 -17 -2 -17 -26 -2 -14 9 -25 13 -25 9 0 -5 -5 -1 -11 7 -8 12 -9 10 -4 -7
5 -18 2 -20 -15 -16 -11 3 -20 9 -20 13 0 4 -7 11 -16 14 -15 6 -15 4 -3 -10
13 -16 12 -16 -7 -6 -16 8 -24 8 -34 -1 -10 -10 -12 -8 -7 6 4 9 2 17 -3 17
-6 0 -10 -6 -10 -14 0 -8 -4 -17 -9 -20 -5 -3 -8 2 -7 12 1 11 -5 16 -18 14
-13 -2 -16 1 -10 10 6 10 4 10 -9 -1 -18 -14 -23 -26 -8 -16 5 3 12 1 15 -4 7
-11 -13 -9 -32 2 -7 5 -10 13 -7 18 4 5 1 9 -5 9 -7 0 -9 -9 -6 -22 3 -13 3
-17 0 -10 -3 6 -15 12 -25 12 -12 0 -17 -4 -14 -11 4 -6 -3 -5 -14 3 -18 11
-23 11 -30 -1 -7 -11 -10 -10 -15 6 -3 10 -16 19 -27 20 -20 2 -21 1 -3 -12
17 -12 16 -13 -9 -8 -15 3 -25 9 -22 12 2 4 -3 8 -11 8 -8 0 -13 -6 -10 -13 3
-8 0 -11 -10 -7 -7 3 -14 8 -14 12 0 4 -10 7 -21 8 -21 2 -21 1 -3 -13 18 -14
18 -15 -2 -5 -12 6 -25 7 -29 3 -5 -4 -5 1 -2 10 4 13 2 16 -11 11 -9 -3 -23
-11 -31 -17 -11 -8 -13 -8 -7 2 4 7 2 12 -4 12 -6 0 -8 5 -4 12 4 7 3 8 -5 4
-6 -4 -9 -11 -6 -16 3 -5 1 -11 -5 -15 -5 -3 -10 0 -10 8 0 11 -7 13 -22 9
-15 -4 -19 -2 -13 7 4 7 -5 5 -21 -5 -15 -11 -25 -14 -21 -8 4 7 -3 14 -18 16
-13 3 -22 1 -19 -3 5 -8 -3 -11 -22 -8 -4 0 -11 -5 -16 -13 -8 -10 -9 -10 -5
2 2 8 11 14 18 12 10 -3 11 0 3 8 -12 12 -47 3 -38 -11 3 -5 -2 -6 -10 -3 -9
3 -14 9 -11 13 2 4 -2 8 -10 8 -8 0 -12 -4 -10 -8 12 -19 -26 -16 -40 4 -8 12
-15 16 -15 10 0 -7 -7 -10 -15 -7 -8 4 -15 1 -15 -5 0 -6 5 -11 12 -11 6 0 9
-3 5 -6 -3 -4 -22 3 -42 15 -20 11 -33 17 -30 11 3 -5 1 -10 -5 -10 -6 0 -8
-4 -5 -10 3 -5 1 -10 -4 -10 -6 0 -11 5 -11 11 0 7 -10 9 -25 7 -13 -3 -22 -1
-19 3 8 14 -40 10 -55 -3 -10 -9 -12 -9 -7 -1 3 6 1 15 -5 19 -8 5 -9 3 -4 -6z
m475 -35 c0 -2 -9 -3 -19 -2 -11 0 -18 5 -15 9 4 6 34 0 34 -7z m511 -32 c13
-16 12 -17 -3 -4 -10 7 -18 15 -18 17 0 8 8 3 21 -13z m549 -48 c0 -2 -9 -3
-19 -2 -11 0 -18 5 -15 9 4 6 34 0 34 -7z m-1650 -175 c0 -5 -5 -10 -11 -10
-5 0 -7 5 -4 10 3 6 8 10 11 10 2 0 4 -4 4 -10z m900 -616 c0 -8 -19 -13 -24
-6 -3 5 1 9 9 9 8 0 15 -2 15 -3z m2310 -28 c0 -6 -5 -3 -11 7 -6 9 -15 14
-21 11 -7 -4 -8 -2 -4 5 9 14 36 -3 36 -23z m-4940 10 c0 -3 -4 -8 -10 -11 -5
-3 -10 -1 -10 4 0 6 5 11 10 11 6 0 10 -2 10 -4z m720 -16 c0 -5 -5 -10 -11
-10 -5 0 -7 5 -4 10 3 6 8 10 11 10 2 0 4 -4 4 -10z m4007 -25 c0 -8 -4 -12
-9 -9 -5 3 -6 10 -3 15 9 13 12 11 12 -6z m-4836 -62 c-12 -20 -14 -14 -5 12
4 9 9 14 11 11 3 -2 0 -13 -6 -23z m4729 24 c0 -2 -8 -12 -19 -21 -16 -15 -19
-15 -24 -2 -4 10 -1 13 7 10 8 -3 17 -1 21 5 6 11 15 15 15 8z m421 -34 c13
-16 12 -17 -3 -4 -10 7 -18 15 -18 17 0 8 8 3 21 -13z m-4061 -47 c0 -3 -4 -8
-10 -11 -5 -3 -10 -1 -10 4 0 6 5 11 10 11 6 0 10 -2 10 -4z m3413 -41 c-3 -9
-8 -14 -10 -11 -3 3 -2 9 2 15 9 16 15 13 8 -4z m-4680 -80 c-3 -9 -8 -14 -10
-11 -3 3 -2 9 2 15 9 16 15 13 8 -4z m2487 -119 c0 -3 -4 -8 -10 -11 -5 -3
-10 -1 -10 4 0 6 5 11 10 11 6 0 10 -2 10 -4z m-2790 -166 c0 -5 -5 -10 -11
-10 -5 0 -7 5 -4 10 3 6 8 10 11 10 2 0 4 -4 4 -10z m2727 -25 c0 -8 -4 -12
-9 -9 -5 3 -6 10 -3 15 9 13 12 11 12 -6z m808 5 c3 -6 -1 -7 -9 -4 -18 7 -21
14 -7 14 6 0 13 -4 16 -10z m-3591 -48 c3 -5 -1 -9 -9 -9 -8 0 -12 4 -9 9 3 4
7 8 9 8 2 0 6 -4 9 -8z m3616 -92 c0 -5 -2 -10 -4 -10 -3 0 -8 5 -11 10 -3 6
-1 10 4 10 6 0 11 -4 11 -10z m-3779 -77 c13 -16 12 -17 -3 -4 -10 7 -18 15
-18 17 0 8 8 3 21 -13z m6449 -7 c0 -2 -8 -10 -17 -17 -16 -13 -17 -12 -4 4
13 16 21 21 21 13z m-4320 -214 c0 -4 -9 -13 -20 -19 -14 -9 -21 -10 -26 -1
-4 6 -3 8 3 5 6 -4 16 0 23 8 14 17 20 19 20 7z m3186 -60 c-17 -16 -18 -16
-5 5 7 12 15 20 18 17 3 -2 -3 -12 -13 -22z m-891 -2 c3 -5 1 -10 -4 -10 -6 0
-11 5 -11 10 0 6 2 10 4 10 3 0 8 -4 11 -10z m2222 -12 c-3 -8 -6 -5 -6 6 -1
11 2 17 5 13 3 -3 4 -12 1 -19z m-877 -322 c0 -3 -4 -8 -10 -11 -5 -3 -10 -1
-10 4 0 6 5 11 10 11 6 0 10 -2 10 -4z m320 -122 c0 -8 -19 -13 -24 -6 -3 5 1
9 9 9 8 0 15 -2 15 -3z m-5883 -429 c0 -8 -4 -12 -9 -9 -5 3 -6 10 -3 15 9 13
12 11 12 -6z m-37 -115 c0 -5 -2 -10 -4 -10 -3 0 -8 5 -11 10 -3 6 -1 10 4 10
6 0 11 -4 11 -10z m720 -304 c0 -2 -8 -10 -17 -17 -16 -13 -17 -12 -4 4 13 16
21 21 21 13z m-1236 -14 c3 -5 -1 -9 -9 -9 -8 0 -12 4 -9 9 3 4 7 8 9 8 2 0 6
-4 9 -8z m1036 -556 c0 -3 -4 -8 -10 -11 -5 -3 -10 -1 -10 4 0 6 5 11 10 11 6
0 10 -2 10 -4z m-1515 -325 c3 -5 2 -12 -3 -15 -5 -3 -9 1 -9 9 0 17 3 19 12
6z m780 -1 c-3 -5 -12 -10 -18 -10 -7 0 -6 4 3 10 19 12 23 12 15 0z m-785
-135 c14 -19 14 -19 -2 -6 -10 7 -18 18 -18 24 0 6 1 8 3 6 1 -2 9 -13 17 -24z
m-15 -344 c3 -5 2 -12 -3 -15 -5 -3 -9 1 -9 9 0 17 3 19 12 6z m0 -101 c3 -6
-1 -7 -9 -4 -18 7 -21 14 -7 14 6 0 13 -4 16 -10z m1272 -36 c-3 -3 -12 -4
-19 -1 -8 3 -5 6 6 6 11 1 17 -2 13 -5z m-1263 -366 c-3 -4 -11 -5 -19 -1 -21
7 -19 12 4 10 11 0 18 -5 15 -9z m906 -1018 c0 -5 -2 -10 -4 -10 -3 0 -8 5
-11 10 -3 6 -1 10 4 10 6 0 11 -4 11 -10z m850 -94 c0 -3 -4 -8 -10 -11 -5 -3
-10 -1 -10 4 0 6 5 11 10 11 6 0 10 -2 10 -4z m-220 -440 c0 -2 -7 -9 -15 -16
-13 -11 -14 -10 -9 4 5 14 24 23 24 12z m790 -148 c0 -6 -3 -8 -7 -5 -3 4 -16
-1 -27 -10 -21 -18 -21 -18 -2 5 21 24 36 29 36 10z m3155 -78 c3 -5 1 -10 -4
-10 -6 0 -11 5 -11 10 0 6 2 10 4 10 3 0 8 -4 11 -10z m-75 -16 c0 -8 -5 -12
-10 -9 -6 4 -8 11 -5 16 9 14 15 11 15 -7z m-45 -32 c-3 -3 -11 0 -18 7 -9 10
-8 11 6 5 10 -3 15 -9 12 -12z m-3375 -34 c0 -6 -3 -8 -7 -5 -3 4 -13 1 -22
-6 -14 -11 -14 -10 -2 6 15 20 31 22 31 5z m-240 -7 c0 -6 -4 -12 -8 -15 -5
-3 -9 1 -9 9 0 8 4 15 9 15 4 0 8 -4 8 -9z m75 -71 c3 -5 1 -10 -4 -10 -6 0
-11 5 -11 10 0 6 2 10 4 10 3 0 8 -4 11 -10z m4125 -105 c0 -2 -9 -3 -19 -2
-11 0 -18 5 -15 9 4 6 34 0 34 -7z m1439 1 c9 -10 7 -17 -6 -27 -16 -13 -17
-12 -5 3 11 14 10 18 -5 27 -10 6 -13 11 -7 11 6 0 17 -6 23 -14z m-3894 -116
c3 -5 1 -10 -4 -10 -6 0 -11 5 -11 10 0 6 2 10 4 10 3 0 8 -4 11 -10z m955
-24 c0 -2 -7 -7 -16 -10 -8 -3 -12 -2 -9 4 6 10 25 14 25 6z m-3456 -97 c-2
-4 2 -10 8 -12 8 -4 9 -6 2 -6 -6 -1 -17 5 -23 12 -8 10 -7 14 4 14 8 0 12 -4
9 -8z m2550 -65 c3 -8 2 -12 -4 -9 -6 3 -10 10 -10 16 0 14 7 11 14 -7z m71
-214 c3 -5 1 -10 -4 -10 -6 0 -11 5 -11 10 0 6 2 10 4 10 3 0 8 -4 11 -10z
m-1520 -189 c3 -5 2 -12 -3 -15 -5 -3 -9 1 -9 9 0 17 3 19 12 6z m1570 -1 c3
-6 -1 -7 -9 -4 -18 7 -21 14 -7 14 6 0 13 -4 16 -10z m2005 -106 c0 -8 -19
-13 -24 -6 -3 5 1 9 9 9 8 0 15 -2 15 -3z m-3840 -23 c0 -5 -7 -11 -14 -14
-10 -4 -13 -1 -9 9 6 15 23 19 23 5z m2284 -76 c-7 -16 -24 -21 -24 -6 0 8 7
13 27 20 1 1 0 -6 -3 -14z m2316 -90 c0 -2 -6 -8 -13 -14 -10 -8 -14 -7 -14 2
0 8 6 14 14 14 7 0 13 -1 13 -2z m-1520 -95 c0 -5 -5 -10 -11 -10 -5 0 -7 5
-4 10 3 6 8 10 11 10 2 0 4 -4 4 -10z m-1920 -139 c0 -6 -4 -12 -8 -15 -5 -3
-9 1 -9 9 0 8 4 15 9 15 4 0 8 -4 8 -9z m1797 -247 c-3 -3 -12 -4 -19 -1 -8 3
-5 6 6 6 11 1 17 -2 13 -5z m-1672 -203 c3 -5 2 -12 -3 -15 -5 -3 -9 1 -9 9 0
17 3 19 12 6z m179 -47 c3 -8 2 -12 -4 -9 -6 3 -10 10 -10 16 0 14 7 11 14 -7z
m61 -4 c-3 -5 -12 -10 -18 -10 -7 0 -6 4 3 10 19 12 23 12 15 0z m769 -46 c3
-8 2 -12 -4 -9 -6 3 -10 10 -10 16 0 14 7 11 14 -7z"/>
<path d="M4890 10136 c0 -2 7 -7 16 -10 8 -3 12 -2 9 4 -6 10 -25 14 -25 6z"/>
<path d="M5545 10100 c-3 -6 1 -7 9 -4 18 7 21 14 7 14 -6 0 -13 -4 -16 -10z"/>
<path d="M5585 10100 c-3 -6 1 -7 9 -4 18 7 21 14 7 14 -6 0 -13 -4 -16 -10z"/>
<path d="M6161 10054 c0 -11 3 -14 6 -6 3 7 2 16 -1 19 -3 4 -6 -2 -5 -13z"/>
<path d="M6210 10049 c0 -5 5 -7 10 -4 6 3 10 8 10 11 0 2 -4 4 -10 4 -5 0
-10 -5 -10 -11z"/>
<path d="M4696 9978 c3 -5 10 -6 15 -3 13 9 11 12 -6 12 -8 0 -12 -4 -9 -9z"/>
<path d="M3350 9393 c0 -5 11 -16 25 -26 17 -12 26 -14 31 -5 4 7 3 8 -4 4 -7
-4 -12 -3 -12 1 0 5 -9 14 -20 21 -11 7 -20 9 -20 5z"/>
<path d="M3505 9301 c-3 -5 -2 -12 3 -15 5 -3 9 1 9 9 0 17 -3 19 -12 6z"/>
<path d="M2984 9282 c3 -5 0 -12 -6 -15 -7 -2 -10 -7 -7 -11 3 -4 12 0 18 8 9
11 9 16 0 22 -7 4 -9 3 -5 -4z"/>
<path d="M5406 9203 c-6 -14 -5 -15 5 -6 7 7 10 15 7 18 -3 3 -9 -2 -12 -12z"/>
<path d="M7917 9179 c7 -7 15 -10 18 -7 3 3 -2 9 -12 12 -14 6 -15 5 -6 -5z"/>
<path d="M8158 8903 c7 -3 16 -2 19 1 4 3 -2 6 -13 5 -11 0 -14 -3 -6 -6z"/>
<path d="M2524 8831 c6 -10 -18 -34 -26 -26 -2 3 -5 -2 -5 -10 0 -12 6 -10 23
6 20 19 24 39 8 39 -3 0 -3 -4 0 -9z"/>
<path d="M8344 8687 c1 -14 8 -22 21 -24 17 -2 17 -1 2 3 -11 3 -16 12 -13 20
3 7 1 16 -3 18 -5 3 -8 -4 -7 -17z"/>
<path d="M5055 8540 c-3 -6 1 -7 9 -4 18 7 21 14 7 14 -6 0 -13 -4 -16 -10z"/>
<path d="M5885 8520 c3 -5 11 -10 16 -10 6 0 7 5 4 10 -3 6 -11 10 -16 10 -6
0 -7 -4 -4 -10z"/>
<path d="M4990 8411 c0 -7 -5 -9 -12 -5 -7 5 -8 3 -3 -5 5 -9 10 -10 18 -2 6
6 8 14 4 18 -4 3 -7 1 -7 -6z"/>
<path d="M3340 8384 c0 -1 11 -9 25 -18 25 -16 25 -16 14 2 -9 15 -39 27 -39
16z"/>
<path d="M3435 8329 c-4 -6 -5 -12 -2 -15 2 -3 7 2 10 11 7 17 1 20 -8 4z"/>
<path d="M8645 8319 c-4 -6 -5 -12 -2 -15 2 -3 7 2 10 11 7 17 1 20 -8 4z"/>
<path d="M3465 8309 c-4 -5 -4 -13 -1 -16 3 -4 6 0 6 8 0 11 2 11 10 -1 6 -9
10 -10 10 -3 0 17 -17 25 -25 12z"/>
<path d="M6175 8280 c-3 -5 -1 -10 4 -10 6 0 11 5 11 10 0 6 -2 10 -4 10 -3 0
-8 -4 -11 -10z"/>
<path d="M4435 8250 c-4 -6 -10 -8 -15 -5 -5 3 -11 1 -14 -3 -6 -10 40 -10 49
0 4 3 2 9 -4 12 -5 4 -12 2 -16 -4z"/>
<path d="M8724 8202 c18 -21 29 -23 27 -5 -1 4 -4 8 -8 8 -5 0 -15 4 -23 9 -9
6 -7 1 4 -12z"/>
<path d="M6355 8200 c-3 -5 -1 -10 4 -10 6 0 11 5 11 10 0 6 -2 10 -4 10 -3 0
-8 -4 -11 -10z"/>
<path d="M3085 8170 c-3 -6 1 -7 9 -4 18 7 21 14 7 14 -6 0 -13 -4 -16 -10z"/>
<path d="M2115 8091 c-3 -5 -2 -12 3 -15 5 -3 9 1 9 9 0 17 -3 19 -12 6z"/>
<path d="M7750 8066 c0 -2 7 -7 16 -10 8 -3 12 -2 9 4 -6 10 -25 14 -25 6z"/>
<path d="M6666 8047 c3 -10 9 -15 12 -12 3 3 0 11 -7 18 -10 9 -11 8 -5 -6z"/>
<path d="M7850 7946 c0 -2 12 -12 28 -21 l27 -18 -19 21 c-17 20 -36 29 -36
18z"/>
<path d="M3096 7818 c3 -5 10 -6 15 -3 13 9 11 12 -6 12 -8 0 -12 -4 -9 -9z"/>
<path d="M8356 7642 c-3 -5 1 -9 9 -9 8 0 12 4 9 9 -3 4 -7 8 -9 8 -2 0 -6 -4
-9 -8z"/>
<path d="M8446 7633 c-6 -14 -5 -15 5 -6 7 7 10 15 7 18 -3 3 -9 -2 -12 -12z"/>
<path d="M2374 7435 c0 -13 3 -22 7 -19 8 4 6 30 -2 38 -3 3 -5 -5 -5 -19z"/>
<path d="M3275 7301 c-3 -5 -2 -12 3 -15 5 -3 9 1 9 9 0 17 -3 19 -12 6z"/>
<path d="M2233 7029 c-2 -23 3 -25 10 -4 4 8 3 16 -1 19 -4 3 -9 -4 -9 -15z"/>
<path d="M9235 6949 c-6 -8 -4 -10 5 -4 9 5 11 4 6 -4 -6 -8 -12 -9 -20 -2 -7
6 -16 8 -19 4 -12 -12 -58 -12 -51 -1 4 6 -3 4 -16 -5 -17 -12 -27 -14 -37 -6
-9 8 -14 7 -19 -5 -5 -13 -9 -14 -21 -5 -8 7 -13 8 -12 3 1 -5 1 -16 0 -24 -1
-13 -2 -13 -11 0 -8 13 -10 12 -10 -3 0 -11 -4 -15 -12 -11 -8 5 -9 2 -4 -11
5 -15 4 -16 -8 -6 -11 9 -16 9 -22 0 -5 -8 -3 -9 7 -4 12 8 12 6 0 -8 -7 -9
-18 -14 -24 -10 -6 3 -7 1 -3 -6 4 -6 0 -18 -8 -27 -9 -8 -16 -12 -16 -8 0 20
-26 -19 -28 -42 -1 -15 -5 -30 -10 -33 -4 -3 -7 -12 -8 -18 -2 -30 -5 -34 -16
-27 -9 5 -9 2 1 -9 9 -12 10 -17 2 -17 -7 0 -9 -4 -6 -10 3 -5 0 -10 -7 -10
-10 0 -10 -2 1 -9 11 -7 11 -9 0 -14 -11 -4 -11 -6 0 -6 11 -1 10 -5 -5 -17
-16 -13 -17 -15 -1 -10 16 5 16 3 2 -24 -9 -17 -11 -30 -6 -30 5 0 12 -7 15
-16 3 -8 2 -13 -3 -10 -5 3 -12 -1 -15 -10 -9 -23 -8 -26 6 -18 7 5 9 2 5 -9
-3 -9 -1 -18 6 -21 8 -3 8 -5 -2 -5 -11 -1 -11 -4 0 -17 7 -9 15 -28 17 -43 2
-14 7 -28 13 -29 5 -2 6 -9 2 -15 -4 -8 -1 -8 9 1 13 10 15 9 13 -13 -2 -14 1
-23 5 -20 5 3 12 1 15 -5 5 -8 12 -7 23 2 12 10 14 10 8 1 -4 -8 -2 -13 4 -13
6 0 9 -4 6 -8 -3 -5 1 -9 8 -9 9 0 12 7 8 15 -3 9 3 7 16 -6 20 -20 59 -21 46
-1 -9 15 3 10 17 -8 10 -11 10 -14 2 -9 -7 4 -13 2 -13 -3 0 -14 13 -14 28 1
8 8 12 8 12 1 0 -6 7 -13 15 -17 13 -5 14 -2 4 17 -11 19 -10 20 3 10 8 -7 18
-10 21 -6 4 3 7 1 7 -6 0 -7 5 -9 10 -6 6 4 8 12 4 18 -3 7 2 3 10 -7 16 -20
16 -20 16 0 0 16 2 17 10 4 7 -11 10 -11 10 -2 0 7 5 10 10 7 6 -4 7 -11 4
-17 -4 -7 -2 -8 4 -4 7 4 12 14 12 22 0 17 20 19 20 2 0 -7 8 -3 18 8 10 14
27 21 44 20 22 -1 25 1 17 16 -7 14 -6 16 6 12 8 -4 15 -15 15 -25 0 -10 5
-19 11 -19 5 0 7 -6 3 -12 -6 -10 -4 -10 7 0 15 14 33 16 25 3 -4 -5 2 -8 11
-7 9 2 19 8 21 14 2 7 7 10 11 7 5 -2 8 6 8 18 1 59 3 68 16 61 9 -6 9 -5 0 7
-10 12 -10 18 -1 27 9 9 9 12 -1 12 -7 0 -9 5 -6 10 4 6 11 8 16 5 12 -8 11 2
-1 26 -8 14 -7 19 1 19 8 0 7 5 -2 17 -9 11 -10 14 -2 9 9 -5 12 1 9 24 -3 25
-1 28 10 19 19 -16 18 -4 -2 15 -14 15 -14 16 1 16 12 0 14 4 5 19 -7 15 -6
23 5 34 12 13 12 16 -8 22 -42 13 -46 13 -40 -2 5 -13 2 -13 -20 1 -26 18 -45
8 -31 -16 4 -7 -5 -2 -21 12 -16 14 -25 19 -20 11 6 -11 4 -13 -9 -8 -14 6
-17 3 -12 -9 5 -14 4 -15 -9 -4 -8 7 -13 16 -10 20 3 5 -3 7 -12 5 -10 -2 -22
-4 -26 -4 -5 -1 -5 -7 -1 -13 4 -7 -3 -4 -15 6 -17 16 -20 16 -16 4 4 -9 1
-19 -6 -24 -8 -5 -10 -3 -4 6 5 8 4 11 -3 6 -6 -4 -8 -14 -5 -23 4 -11 3 -14
-6 -9 -14 9 -11 -16 4 -26 6 -5 3 -8 -6 -8 -12 0 -14 -8 -10 -42 3 -24 11 -42
16 -40 6 2 9 11 7 20 -2 12 2 10 13 -6 11 -14 21 -20 29 -15 7 4 4 1 -6 -9
-13 -12 -15 -18 -6 -22 7 -4 3 -4 -10 -2 -19 4 -21 2 -11 -10 12 -14 7 -18
-24 -15 -9 1 -20 -5 -23 -13 -3 -9 -11 -16 -16 -16 -6 0 -7 7 -4 16 3 9 2 12
-5 9 -5 -4 -16 -2 -24 5 -9 8 -15 8 -20 0 -4 -6 -1 -9 6 -8 6 2 13 -2 15 -7 2
-6 -4 -11 -15 -11 -11 0 -19 5 -18 11 1 5 -4 9 -10 8 -7 -2 -13 1 -13 6 0 5
-9 13 -20 16 -11 4 -18 11 -14 16 3 6 1 15 -4 22 -5 7 -8 22 -7 35 1 12 -3 22
-9 22 -6 0 -4 5 4 10 8 5 11 10 5 10 -5 0 -1 8 10 17 15 12 16 14 3 10 -19 -7
-18 16 3 55 7 13 12 31 10 41 -1 9 3 17 9 17 6 0 8 5 4 13 -6 9 -5 9 7 0 12
-10 15 -8 16 8 2 18 26 50 38 50 2 0 12 2 21 6 9 3 25 1 35 -5 15 -10 17 -9
13 6 -5 15 -4 15 8 2 7 -8 19 -15 26 -16 29 -2 35 -4 29 -10 -3 -4 1 -13 9
-22 13 -12 13 -16 2 -23 -10 -7 -9 -9 4 -9 9 0 18 -3 21 -7 2 -5 2 -1 0 7 -2
10 2 8 12 -4 8 -11 15 -14 15 -8 0 7 5 12 11 12 5 0 7 -5 3 -12 -4 -6 -3 -8 4
-4 5 3 12 3 15 -1 2 -5 2 -3 1 4 -2 7 2 15 8 19 6 4 8 3 5 -3 -4 -6 0 -13 8
-17 8 -3 19 3 24 12 9 15 10 15 11 -3 0 -17 2 -17 10 -5 9 13 10 13 10 0 0
-13 1 -13 10 0 7 11 10 11 10 2 0 -7 5 -10 10 -7 6 4 7 12 3 18 -5 9 -3 9 8 0
11 -9 14 -7 15 13 1 16 -4 24 -15 25 -12 0 -12 2 4 9 11 5 14 9 6 9 -10 1 -11
4 -2 15 9 11 9 15 -1 19 -9 4 -9 6 2 7 10 0 6 6 -10 15 -18 10 -20 14 -8 15 9
0 19 4 22 9 3 4 -5 7 -19 6 -19 -3 -23 1 -20 17 4 17 2 18 -12 6 -12 -9 -15
-9 -9 0 4 7 2 12 -5 12 -8 0 -9 3 0 14 9 11 6 12 -15 8 -21 -4 -25 -2 -19 9 7
11 5 11 -10 -1 -10 -8 -16 -10 -12 -4 12 21 -54 37 -81 20 -7 -4 -12 -2 -12 5
0 8 -5 7 -17 -2 -14 -12 -16 -12 -8 0 6 11 4 13 -7 8 -9 -3 -20 -1 -26 5 -6 6
-12 6 -17 -3z m149 -17 c2 -4 -5 -9 -17 -9 -17 -2 -19 0 -7 7 18 12 18 12 24
2z m-444 -142 c0 -5 -5 -10 -11 -10 -5 0 -7 5 -4 10 3 6 8 10 11 10 2 0 4 -4
4 -10z m377 -152 c-3 -8 -6 -5 -6 6 -1 11 2 17 5 13 3 -3 4 -12 1 -19z m178
13 c3 -5 2 -12 -3 -15 -5 -3 -9 1 -9 9 0 17 3 19 12 6z m-544 -338 c13 -16 12
-17 -3 -4 -10 7 -18 15 -18 17 0 8 8 3 21 -13z"/>
<path d="M8614 6935 c-4 -11 -13 -13 -28 -9 -19 6 -20 5 -6 -11 12 -15 12 -17
1 -10 -11 6 -13 4 -8 -8 4 -12 1 -17 -11 -17 -14 0 -15 -2 -2 -10 13 -8 13
-11 1 -22 -11 -11 -13 -11 -6 1 5 9 4 12 -3 7 -7 -4 -12 -14 -12 -22 0 -10 5
-12 13 -8 9 6 9 5 0 -8 -7 -8 -9 -19 -5 -23 4 -5 -1 -5 -10 -2 -13 5 -16 1
-12 -20 4 -20 2 -24 -11 -19 -12 4 -14 2 -7 -11 7 -11 6 -21 -3 -30 -8 -7 -12
-22 -10 -33 3 -13 0 -18 -7 -14 -7 5 -9 1 -5 -9 3 -10 2 -17 -3 -17 -6 0 -10
-5 -10 -11 0 -5 6 -7 13 -4 6 4 3 -1 -8 -10 -11 -9 -19 -24 -18 -33 1 -10 0
-11 -3 -4 -3 6 -9 10 -13 8 -17 -11 -4 45 14 58 19 15 19 15 -5 10 -20 -5 -22
-3 -10 5 12 8 12 11 1 11 -10 0 -11 3 -2 14 9 10 9 16 1 21 -8 5 -8 11 1 21 9
11 9 17 -1 29 -10 12 -10 15 1 15 11 0 11 2 -1 10 -8 5 -11 12 -8 16 4 4 3 15
-3 25 -6 13 -6 19 0 19 6 0 8 7 5 15 -4 8 -11 12 -18 8 -6 -4 -5 1 2 10 20 24
7 56 -20 49 -12 -3 -19 -1 -16 4 4 5 -12 9 -33 10 -31 0 -38 -3 -34 -15 5 -12
2 -11 -13 2 -21 19 -32 22 -32 6 0 -5 5 -7 12 -3 7 5 8 3 4 -5 -6 -9 -12 -9
-25 3 -20 19 -31 20 -31 5 0 -5 5 -7 12 -3 7 5 8 3 4 -5 -6 -9 -12 -9 -25 3
-23 20 -31 20 -31 -1 0 -15 -2 -14 -16 3 -8 10 -13 13 -9 7 3 -7 1 -13 -4 -13
-6 0 -11 -17 -11 -37 0 -28 -3 -34 -10 -23 -6 9 -10 10 -10 3 0 -6 4 -14 10
-18 5 -3 7 -12 4 -20 -4 -8 -10 -13 -14 -10 -5 3 -7 -3 -5 -12 1 -10 9 -17 16
-15 9 1 8 -3 -3 -11 -10 -8 -15 -17 -11 -20 3 -4 0 -7 -7 -7 -9 0 -7 -5 6 -16
10 -8 13 -13 7 -9 -7 3 -13 3 -14 -2 0 -4 -2 -16 -4 -25 -2 -10 2 -18 8 -18 8
0 7 -4 -2 -9 -7 -5 -10 -14 -7 -20 4 -6 1 -11 -6 -12 -7 0 -4 -4 7 -9 15 -7
16 -9 4 -9 -24 -1 -32 -42 -11 -58 9 -8 11 -12 5 -8 -8 4 -13 0 -13 -10 0 -10
-5 -13 -12 -9 -7 4 -8 3 -4 -5 12 -19 18 -63 7 -57 -5 3 -11 -1 -15 -9 -3 -8
-1 -17 5 -21 6 -4 6 -11 -2 -20 -6 -8 -9 -23 -6 -34 4 -14 0 -20 -11 -20 -11
0 -13 -3 -6 -8 15 -10 25 -42 12 -39 -5 1 -12 -6 -13 -16 -3 -14 -1 -16 10 -7
11 10 13 8 10 -9 -2 -12 0 -21 6 -21 5 0 9 7 9 15 0 8 4 15 10 15 5 0 7 -7 4
-15 -5 -11 -2 -13 10 -9 9 3 13 10 10 16 -3 5 10 2 29 -6 34 -14 36 -13 68 15
19 17 27 29 18 29 -12 0 -12 2 1 10 8 5 10 10 4 10 -6 0 -11 7 -11 15 0 9 4
11 11 6 7 -6 11 -2 11 14 0 13 -2 22 -5 20 -3 -2 -5 10 -5 25 0 19 3 25 11 19
13 -10 13 19 -1 40 -5 10 -4 12 3 7 8 -5 12 6 12 36 0 31 3 39 10 28 5 -8 10
-11 10 -6 0 5 -8 18 -17 28 -16 18 -16 18 0 12 10 -3 17 -1 17 5 0 6 -6 11
-12 11 -10 0 -10 2 0 9 7 4 12 23 10 44 -1 20 2 40 7 44 4 4 5 0 2 -9 -4 -11
2 -23 16 -34 12 -9 15 -14 7 -12 -12 4 -15 -4 -16 -38 0 -23 2 -42 5 -42 19 2
24 -4 11 -12 -13 -9 -13 -11 0 -20 13 -8 12 -10 -2 -10 -10 0 -18 -5 -18 -11
0 -5 4 -8 9 -4 5 3 12 1 16 -5 3 -5 -1 -10 -10 -10 -15 0 -15 -2 -2 -15 12
-11 17 -50 7 -50 -1 0 -3 -13 -4 -28 -2 -22 0 -27 13 -22 13 5 14 4 4 -6 -16
-16 -17 -33 -2 -23 6 3 3 -5 -6 -20 -11 -17 -13 -26 -6 -26 7 0 10 -4 7 -8 -2
-4 5 -9 17 -9 12 -1 23 -7 25 -13 2 -5 8 -7 13 -4 6 3 5 12 -3 22 -12 15 -11
15 4 4 9 -7 22 -12 30 -11 34 4 41 0 27 -18 -12 -16 -12 -17 2 -6 9 7 20 9 24
5 5 -4 5 -2 2 4 -4 7 0 15 9 18 8 3 13 10 9 15 -3 5 0 13 6 17 8 4 9 3 5 -4
-4 -7 -2 -12 3 -12 14 0 14 17 1 25 -8 5 -7 11 0 20 7 8 9 19 5 25 -4 6 -1 9
7 8 8 -2 13 7 12 24 0 19 3 24 11 18 8 -6 11 1 11 23 0 22 4 31 14 29 11 -3
11 0 1 12 -9 11 -9 16 0 22 8 5 9 3 4 -6 -5 -9 -4 -11 4 -6 9 6 9 11 -1 24 -7
9 -8 13 -2 9 13 -8 41 20 30 30 -3 3 -6 1 -6 -5 0 -7 -5 -12 -12 -12 -6 0 -4
7 5 18 20 22 22 36 5 27 -7 -4 -5 0 5 8 10 8 17 19 16 23 -1 5 0 12 1 17 1 4
3 12 4 19 2 16 33 18 33 2 0 -8 -6 -14 -14 -14 -20 0 -16 -20 5 -21 13 0 12
-2 -5 -9 -27 -11 -31 -22 -5 -13 14 5 14 3 -3 -11 -19 -16 -19 -17 -1 -12 16
6 17 4 6 -9 -7 -9 -10 -18 -7 -22 4 -3 2 -14 -3 -24 -6 -10 -11 -31 -11 -46
-2 -46 -9 -64 -22 -56 -9 5 -9 3 0 -8 7 -8 8 -20 4 -28 -5 -7 -5 -28 -1 -47 7
-30 -1 -47 -13 -26 -2 4 -2 0 1 -8 2 -8 5 -20 5 -27 0 -7 4 -10 9 -7 5 3 6 9
3 14 -3 4 4 6 15 3 11 -3 17 -10 13 -16 -4 -6 -1 -7 8 -1 14 9 19 10 40 13 5
0 7 7 4 14 -4 6 2 3 12 -8 20 -22 60 -26 55 -6 -2 8 3 11 10 8 9 -3 14 3 14
14 0 11 -4 19 -9 19 -4 0 -5 5 -2 10 4 6 10 8 14 6 4 -3 8 1 8 9 0 8 -7 15
-16 16 -10 0 -8 4 7 9 22 10 31 30 11 30 -5 0 -7 -5 -3 -12 5 -7 3 -8 -5 -4
-9 6 -8 13 6 28 13 16 15 22 5 25 -10 4 -10 8 0 21 11 13 11 15 -2 8 -10 -5
-9 -3 2 6 15 13 15 15 0 26 -16 11 -16 11 0 6 13 -4 15 -1 11 14 -2 11 0 23 7
27 8 5 8 10 -1 21 -9 11 -9 14 0 14 7 0 9 5 6 10 -3 6 -1 10 4 10 6 0 11 5 11
11 0 5 -5 7 -12 3 -8 -5 -9 -2 -5 10 4 10 7 20 7 22 0 3 4 3 8 0 9 -5 10 23 1
39 -3 6 -4 16 -3 23 1 6 2 19 3 28 0 8 5 13 9 10 4 -2 8 4 8 14 0 11 -6 16
-16 13 -10 -3 -9 0 3 7 14 9 16 15 6 26 -10 12 -9 13 6 8 13 -5 16 -4 11 5 -5
7 -9 26 -10 43 -2 26 -1 28 10 13 12 -16 13 -16 11 4 -1 13 -12 26 -28 33 -15
7 -25 16 -22 22 4 5 1 6 -6 2 -7 -5 -10 -15 -6 -23 5 -14 3 -14 -11 -2 -23 19
-56 18 -71 -1 -10 -13 -12 -11 -8 10 4 23 3 24 -9 7 -11 -14 -15 -15 -19 -5
-4 10 -6 10 -6 -1 -1 -11 -4 -11 -18 0 -9 8 -14 9 -10 3 4 -7 0 -14 -7 -17
-10 -4 -13 0 -11 14 5 23 -3 25 -11 4z m-284 -329 c0 -3 -4 -8 -10 -11 -5 -3
-10 -1 -10 4 0 6 5 11 10 11 6 0 10 -2 10 -4z m-140 -316 c0 -5 -2 -10 -4 -10
-3 0 -8 5 -11 10 -3 6 -1 10 4 10 6 0 11 -4 11 -10z m545 0 c3 -6 -1 -7 -9 -4
-18 7 -21 14 -7 14 6 0 13 -4 16 -10z"/>
<path d="M1576 6733 c-6 -14 -5 -15 5 -6 7 7 10 15 7 18 -3 3 -9 -2 -12 -12z"/>
<path d="M4388 6729 c-5 -3 -20 -5 -34 -3 -13 1 -24 -1 -24 -5 0 -4 -22 -7
-50 -6 -27 1 -50 -2 -50 -6 0 -4 -18 -7 -41 -6 -22 2 -45 -3 -50 -9 -5 -7 -21
-11 -35 -9 -13 1 -27 -2 -30 -6 -3 -5 -14 -9 -25 -9 -10 0 -19 -4 -19 -8 0 -4
-8 -8 -17 -9 -30 -2 -92 -24 -126 -43 -10 -6 -22 -8 -27 -5 -6 4 -10 1 -10 -4
0 -6 -7 -11 -15 -11 -8 0 -15 -3 -15 -8 0 -4 -18 -15 -40 -25 -22 -9 -40 -22
-40 -28 0 -5 -4 -7 -10 -4 -5 3 -10 1 -10 -4 0 -6 -6 -11 -13 -11 -7 0 -20 -8
-29 -17 -26 -28 -46 -43 -57 -43 -5 0 -13 -9 -16 -21 -4 -11 -9 -18 -12 -16
-5 6 -43 -29 -43 -41 0 -4 -9 -13 -20 -20 -12 -7 -18 -17 -15 -22 3 -6 0 -10
-8 -10 -8 0 -18 -7 -21 -16 -4 -10 -2 -13 7 -9 6 4 -1 -5 -16 -19 -15 -14 -25
-26 -21 -26 4 0 -1 -9 -11 -20 -10 -11 -15 -20 -10 -20 4 0 1 -7 -6 -16 -7 -9
-15 -25 -16 -37 -2 -12 -7 -24 -11 -27 -8 -5 -29 -70 -37 -115 -2 -11 -4 -20
-5 -20 -12 0 -20 -194 -8 -201 6 -4 5 -10 -3 -15 -10 -6 -10 -9 -2 -9 7 0 10
-7 7 -15 -4 -8 -2 -15 3 -15 5 0 10 -7 11 -15 1 -8 3 -22 4 -30 1 -8 5 -15 10
-15 4 0 7 -3 6 -7 -1 -5 3 -18 10 -29 6 -12 8 -25 4 -29 -4 -3 0 -5 8 -3 8 2
14 -3 13 -9 -2 -7 4 -13 13 -13 8 0 12 -4 9 -10 -3 -5 -1 -10 5 -10 6 0 9 -4
6 -9 -4 -5 7 -15 23 -22 16 -7 28 -17 25 -21 -5 -8 37 -34 49 -30 5 1 6 -2 3
-7 -3 -5 10 -16 29 -25 19 -9 37 -21 40 -26 4 -6 11 -8 16 -5 5 4 9 1 9 -4 0
-6 3 -10 8 -10 18 3 33 -2 28 -9 -2 -4 5 -9 16 -9 11 -1 41 -12 67 -24 25 -12
51 -22 56 -24 16 -3 69 -16 80 -20 6 -1 13 -3 17 -4 4 -1 22 -7 40 -12 18 -5
47 -12 63 -15 17 -3 37 -7 45 -9 8 -2 21 -4 28 -4 7 -1 11 -5 8 -10 -4 -5 3
-7 14 -4 11 3 26 1 33 -4 6 -5 22 -8 35 -7 12 0 22 -2 22 -7 0 -5 7 -5 17 -2
10 4 14 2 10 -4 -3 -5 3 -9 16 -8 12 1 26 0 32 -3 10 -6 33 -11 68 -14 9 -1
17 -6 17 -11 0 -4 4 -5 10 -2 5 3 20 0 32 -7 13 -7 28 -11 35 -10 6 1 14 -2
18 -8 3 -5 13 -10 21 -10 15 0 25 -7 76 -52 23 -21 30 -36 30 -63 0 -19 -6
-42 -12 -50 -7 -8 -9 -15 -5 -15 4 0 -8 -15 -27 -34 -18 -19 -35 -32 -37 -30
-2 2 -10 -1 -18 -7 -7 -6 -13 -8 -13 -3 0 5 -4 2 -10 -6 -5 -8 -21 -15 -37
-16 -15 -1 -28 -3 -28 -4 0 -10 -115 -18 -121 -8 -3 4 -11 5 -17 1 -18 -12
-171 -10 -179 2 -5 6 -8 5 -8 -4 0 -9 -4 -10 -12 -4 -7 5 -26 10 -42 11 -17 1
-32 6 -35 11 -3 4 -14 7 -23 5 -10 -1 -18 2 -18 7 0 5 -8 13 -17 16 -23 9 -60
43 -47 43 5 0 5 3 -1 8 -13 9 -36 74 -24 66 5 -3 5 5 0 19 -6 14 -8 27 -5 29
2 3 6 25 8 49 l4 44 -34 0 c-19 0 -34 -4 -34 -8 0 -5 -5 -5 -12 -1 -6 4 -72 8
-147 8 -75 1 -142 5 -150 10 -9 6 -12 5 -7 -2 7 -12 -61 -11 -80 1 -6 3 -14 3
-18 0 -4 -4 -70 -7 -148 -7 l-141 -1 -4 -25 c-2 -13 -7 -27 -11 -30 -4 -3 -8
-16 -9 -30 -7 -96 -10 -117 -18 -130 -5 -9 -4 -15 3 -18 7 -2 9 -9 5 -15 -9
-15 -12 -47 -4 -47 3 0 6 -17 5 -37 0 -21 7 -61 17 -90 10 -28 15 -54 12 -57
-4 -3 -1 -6 5 -6 7 0 12 -7 12 -15 0 -8 8 -24 18 -35 9 -11 17 -24 17 -28 0
-4 15 -22 33 -41 17 -19 32 -38 32 -43 0 -5 5 -6 10 -3 6 3 10 -1 10 -10 0 -9
4 -14 9 -10 5 3 17 -5 26 -17 8 -13 18 -22 20 -21 12 6 34 -10 28 -20 -4 -6
-1 -7 6 -3 7 5 21 0 31 -9 10 -9 24 -14 29 -10 6 3 11 0 11 -8 0 -10 7 -13 19
-10 10 2 24 -1 32 -9 14 -13 29 -18 59 -23 8 -1 22 -5 30 -8 8 -3 24 -7 35 -9
11 -2 23 -7 27 -13 5 -6 8 -4 8 5 0 12 2 12 8 2 5 -8 34 -13 74 -15 36 -1 64
-5 62 -8 -2 -3 11 -7 29 -8 18 -1 48 -4 67 -7 62 -9 470 -12 475 -3 3 4 17 4
30 -1 13 -5 26 -6 29 -2 3 4 20 9 38 10 31 2 66 8 78 12 3 1 17 2 33 2 15 1
27 4 27 8 0 4 6 7 13 7 24 -2 137 26 137 34 0 5 6 6 14 3 8 -3 17 0 21 5 3 6
11 9 16 6 5 -4 9 -2 9 4 0 5 11 8 25 5 17 -3 27 2 35 16 6 11 14 18 19 16 4
-3 19 1 34 9 15 8 27 12 27 10 0 -3 9 3 20 13 12 9 24 17 28 17 4 0 21 10 39
23 17 12 34 22 37 22 6 0 47 33 81 67 13 12 24 21 26 19 2 -1 12 6 22 16 9 10
15 18 13 18 -2 0 13 17 33 39 41 44 45 49 89 113 18 26 32 51 32 57 0 6 5 11
12 11 6 0 8 3 5 6 -4 4 2 23 12 43 11 20 24 50 29 66 6 17 13 39 18 50 4 11 9
31 11 45 2 13 10 31 16 39 10 12 9 13 -2 6 -11 -6 -12 -5 -5 6 13 21 16 46 17
124 0 92 -5 145 -15 145 -4 0 -8 11 -8 25 0 14 -4 25 -8 25 -4 0 -13 15 -20
33 -11 30 -122 159 -122 142 0 -5 -8 2 -19 13 -10 12 -23 22 -29 22 -6 0 -16
8 -21 18 -6 9 -11 14 -11 9 0 -10 -62 22 -72 37 -5 7 -8 6 -8 -4 -1 -12 -3
-12 -11 2 -5 10 -16 15 -24 12 -8 -4 -15 -1 -15 6 0 6 -4 9 -9 5 -5 -3 -12 -1
-16 5 -3 5 -15 10 -26 10 -10 0 -19 4 -19 10 0 5 -7 7 -15 4 -9 -4 -15 0 -15
7 0 11 -3 11 -10 -1 -8 -12 -10 -12 -10 -1 0 8 -3 11 -7 8 -3 -4 -11 -3 -17 2
-11 10 -32 15 -106 27 -19 3 -41 11 -47 16 -7 6 -13 7 -13 3 0 -4 -7 -2 -15 5
-12 10 -15 10 -15 0 0 -10 -3 -10 -15 0 -9 7 -18 10 -22 7 -3 -4 -11 -2 -18 3
-7 5 -27 12 -46 14 -19 3 -36 6 -39 7 -3 1 -12 3 -20 3 -8 1 -14 8 -12 14 2
10 -3 10 -18 2 -11 -6 -20 -7 -20 -3 0 5 -10 10 -22 11 -25 2 -60 9 -68 13 -3
1 -12 3 -20 3 -8 1 -14 7 -13 12 1 6 -12 10 -28 9 -18 -1 -33 4 -36 11 -3 8
-9 11 -14 8 -5 -3 -9 0 -9 6 0 6 -4 8 -10 5 -5 -3 -10 -2 -10 3 0 5 -11 15
-25 22 -14 7 -23 15 -20 18 2 2 -2 10 -9 18 -8 8 -13 29 -10 51 2 30 13 47 49
80 26 24 51 41 55 38 5 -3 11 -1 14 4 3 5 21 12 40 15 19 4 37 12 39 19 4 9 6
9 6 0 1 -9 8 -10 27 -3 16 7 23 7 19 0 -4 -6 2 -7 17 -2 28 10 79 9 95 -1 6
-4 14 -3 18 3 4 6 11 8 16 4 5 -3 26 -8 47 -10 40 -5 122 -42 122 -56 0 -4 7
-8 15 -8 13 0 17 -6 14 -26 0 -4 5 -10 12 -15 8 -5 13 -31 13 -72 1 -36 4 -63
9 -60 4 2 7 -2 7 -9 0 -8 3 -9 8 -3 8 11 41 13 57 3 6 -3 19 -2 29 1 11 4 38
5 60 2 23 -3 103 -6 178 -6 76 0 138 -3 138 -6 0 -8 45 -3 59 6 6 3 11 2 11
-4 0 -7 8 -7 25 -1 14 5 25 6 25 2 0 -12 110 -9 111 3 0 6 2 17 4 25 9 44 16
86 16 95 2 46 -12 158 -20 174 -14 26 -14 34 2 25 6 -4 4 2 -6 13 -9 11 -14
23 -10 26 3 4 1 7 -5 7 -7 0 -12 6 -12 14 0 7 -7 19 -15 26 -9 7 -13 15 -11
18 3 2 -8 18 -24 36 -17 17 -30 34 -30 39 0 4 -7 7 -16 7 -8 0 -12 5 -9 10 3
6 2 10 -2 10 -5 0 -18 7 -29 16 -10 8 -12 12 -4 8 9 -4 12 -3 7 2 -5 5 -12 9
-15 9 -8 1 -72 39 -87 53 -6 5 -23 12 -38 16 -15 3 -27 11 -27 16 0 5 -7 7
-15 4 -8 -4 -15 -2 -15 4 0 5 -7 13 -16 16 -10 4 -13 2 -8 -7 6 -9 4 -9 -7 -1
-20 15 -106 42 -154 47 -22 3 -51 8 -65 11 -48 11 -86 17 -140 22 -81 8 -390
10 -402 3z"/>
<path d="M6748 6622 c-9 -2 -22 -16 -28 -33 -7 -16 -17 -29 -22 -29 -5 0 -7
-4 -4 -9 3 -5 -1 -14 -9 -21 -8 -7 -13 -16 -10 -20 3 -4 -2 -10 -10 -14 -8 -3
-15 -12 -15 -19 0 -8 -7 -20 -15 -27 -8 -7 -13 -16 -10 -20 3 -4 -2 -13 -10
-20 -8 -7 -15 -19 -15 -26 0 -8 -3 -14 -7 -14 -5 0 -19 -23 -32 -50 -14 -27
-27 -47 -31 -45 -3 2 -7 -6 -7 -17 -1 -12 -6 -24 -11 -27 -9 -6 -36 -51 -37
-62 0 -3 -9 -17 -19 -31 -10 -14 -18 -29 -17 -33 1 -4 -6 -13 -16 -21 -10 -7
-14 -14 -10 -14 5 0 -1 -12 -12 -26 -12 -15 -21 -33 -21 -40 0 -8 -3 -14 -7
-14 -5 0 -24 -29 -43 -65 -19 -36 -39 -65 -43 -65 -5 0 -5 -4 -2 -10 3 -5 3
-10 -2 -10 -4 0 -15 -15 -22 -32 -8 -18 -36 -68 -63 -111 -26 -43 -48 -83 -48
-88 0 -5 -5 -9 -11 -9 -5 0 -8 -4 -4 -9 3 -6 0 -13 -7 -18 -7 -4 -21 -24 -30
-43 -25 -51 -72 -134 -79 -140 -4 -3 -16 -23 -28 -45 -22 -42 -35 -63 -63
-106 -10 -14 -15 -29 -11 -33 3 -3 1 -6 -5 -6 -7 0 -12 -7 -12 -15 0 -8 -5
-15 -11 -15 -5 0 -8 -4 -5 -9 3 -4 -3 -16 -14 -26 -11 -10 -20 -22 -20 -26 0
-12 -72 -133 -84 -141 -6 -4 -7 -8 -3 -8 4 0 -8 -25 -28 -55 -19 -30 -32 -55
-28 -55 3 0 -3 -8 -13 -17 -10 -10 -20 -24 -22 -32 -2 -8 -12 -27 -23 -43 -11
-15 -17 -28 -12 -28 4 0 0 -5 -10 -11 -9 -6 -15 -14 -12 -20 4 -5 1 -9 -4 -9
-6 0 -11 -4 -11 -10 0 -5 -18 -39 -39 -74 -22 -35 -37 -67 -34 -70 4 -3 2 -6
-4 -6 -5 0 -18 -17 -29 -37 -10 -21 -21 -40 -24 -43 -7 -7 -50 -87 -50 -93 0
-3 47 -5 104 -4 60 2 102 -1 99 -6 -3 -5 4 -4 16 2 16 9 21 9 21 -1 0 -8 3 -9
8 -3 4 6 48 10 97 10 50 0 93 -4 97 -10 5 -6 8 -6 8 2 0 13 18 12 39 -1 8 -5
12 -5 8 0 -7 12 176 12 185 -1 5 -7 8 -7 8 0 0 6 17 9 38 8 55 -3 70 4 84 43
6 18 16 34 21 34 4 0 6 4 2 9 -3 5 2 17 11 25 8 9 13 16 9 16 -3 0 1 10 9 22
9 12 16 31 16 41 0 10 5 15 10 12 6 -3 10 0 10 7 1 7 13 38 28 69 l27 56 190
-2 c117 0 196 3 204 10 11 7 13 7 7 -3 -6 -10 1 -12 26 -9 19 2 40 7 47 12 10
6 12 4 6 -4 -5 -10 2 -12 29 -8 23 3 36 1 36 -7 0 -8 2 -8 8 0 8 13 102 12
123 -1 7 -5 10 -4 6 2 -7 11 67 12 79 1 4 -4 15 -3 24 2 14 7 21 4 33 -14 10
-14 12 -28 7 -36 -5 -8 -5 -19 1 -26 5 -6 9 -22 9 -35 0 -13 2 -42 5 -64 10
-69 12 -89 13 -123 2 -26 6 -33 20 -30 9 1 23 -1 30 -5 6 -5 12 -5 12 0 0 12
124 10 132 -2 5 -7 8 -7 8 0 0 8 80 12 100 4 3 -1 10 0 15 1 34 7 115 3 115
-5 0 -7 3 -7 8 0 8 12 42 13 60 2 6 -5 12 -5 12 0 0 10 133 8 149 -1 6 -4 11
-3 11 1 0 5 25 7 55 5 l56 -3 -3 41 c-1 22 -6 40 -12 40 -5 0 -7 2 -4 5 3 3 1
27 -4 53 -17 87 -19 97 -20 120 -1 12 -5 22 -8 22 -4 0 -8 15 -9 33 -5 70 -6
82 -12 87 -4 3 -8 21 -10 40 -2 19 -5 40 -8 45 -7 12 -10 31 -14 67 -1 16 -5
28 -9 28 -3 0 -4 10 0 22 4 16 2 19 -9 13 -12 -8 -12 -6 0 8 7 9 9 17 4 17 -5
0 -10 12 -10 28 -1 15 -6 46 -12 70 -6 23 -14 58 -17 78 -3 20 -8 46 -10 58
-14 60 -18 83 -18 108 -1 14 -5 24 -9 21 -5 -3 -8 8 -6 23 1 16 -1 36 -5 45
-4 9 -6 22 -4 30 2 8 -2 13 -8 12 -7 -1 -10 6 -7 17 3 11 1 26 -4 33 -4 6 -8
27 -8 45 0 17 -2 32 -6 32 -3 0 -5 11 -4 25 2 14 0 25 -4 25 -4 0 -7 10 -8 23
0 20 -3 34 -19 112 -4 17 -7 40 -7 53 -1 12 -5 22 -11 22 -5 0 -6 3 -3 7 4 3
2 12 -4 20 -9 10 -8 13 0 13 7 0 9 5 4 13 -9 14 -12 28 -18 80 -3 21 -7 43
-10 48 -8 12 -15 48 -17 81 0 15 -4 26 -7 24 -4 -3 -7 10 -8 27 -2 41 -7 65
-16 73 -4 4 -2 13 4 21 7 8 8 13 2 13 -10 0 -20 42 -30 120 -2 19 -8 39 -13
44 -5 5 -5 17 1 29 8 14 8 18 0 13 -7 -5 -12 3 -13 21 -1 27 -2 35 -8 58 -2 6
-3 17 -4 25 -1 11 -13 15 -44 15 -23 0 -42 3 -42 6 0 3 -7 6 -15 6 -8 0 -15
-3 -15 -6 0 -7 -41 -7 -56 0 -5 3 -42 5 -81 4 -40 0 -73 3 -73 7 0 4 -11 3
-25 -2 -14 -5 -25 -6 -25 -2 0 4 -52 7 -115 7 -71 0 -115 4 -115 10 0 5 -4 4
-9 -4 -6 -9 -11 -10 -15 -2 -5 7 -13 8 -25 1 -10 -5 -21 -6 -25 -3 -6 7 -119
11 -148 5z m299 -660 c0 -15 4 -52 7 -82 4 -30 9 -74 11 -97 3 -24 8 -64 11
-90 3 -27 7 -69 7 -95 1 -27 5 -48 8 -48 3 0 5 -18 4 -40 -1 -22 1 -40 4 -40
4 0 8 -26 9 -57 5 -79 7 -97 13 -108 3 -6 5 -32 4 -60 0 -43 -3 -50 -20 -50
-11 0 -26 4 -32 9 -9 5 -13 4 -13 -5 0 -11 -2 -11 -10 1 -9 13 -10 13 -10 0 0
-9 -3 -11 -8 -5 -8 12 -27 13 -38 3 -4 -4 -13 -3 -20 3 -9 7 -19 7 -33 0 -13
-7 -22 -8 -26 -1 -6 10 -33 9 -52 -3 -6 -4 -14 -3 -17 1 -3 5 -44 9 -91 8 -47
-1 -94 2 -106 6 l-20 8 20 21 c11 12 18 26 15 31 -3 4 0 8 5 8 6 0 10 3 9 8
-3 9 42 102 62 126 12 15 12 18 1 11 -8 -5 -2 8 13 28 16 20 25 37 22 37 -4 0
-1 10 6 23 7 12 11 25 10 30 -1 4 3 7 9 7 5 0 7 5 4 10 -3 6 -2 10 4 10 9 0
24 32 26 53 0 4 7 12 15 17 8 5 12 10 7 10 -4 0 4 21 18 47 14 27 25 52 25 56
0 5 7 15 15 23 8 9 15 24 15 35 0 10 5 19 10 19 6 0 10 9 10 20 0 11 4 20 9
20 9 0 26 48 23 63 -1 4 3 7 9 7 5 0 15 13 20 29 13 36 35 31 36 -7z"/>
<path d="M8445 6620 c-3 -5 -1 -10 4 -10 6 0 11 5 11 10 0 6 -2 10 -4 10 -3 0
-8 -4 -11 -10z"/>
<path d="M1310 6496 c0 -2 7 -7 16 -10 8 -3 12 -2 9 4 -6 10 -25 14 -25 6z"/>
<path d="M1304 6142 c3 -5 0 -12 -6 -15 -7 -2 -10 -7 -7 -11 3 -4 12 0 18 8 9
11 9 16 0 22 -7 4 -9 3 -5 -4z"/>
<path d="M2305 6040 c-3 -6 1 -7 9 -4 18 7 21 14 7 14 -6 0 -13 -4 -16 -10z"/>
<path d="M1270 5856 c0 -2 7 -9 15 -16 9 -7 15 -8 15 -2 0 5 -7 12 -15 16 -8
3 -15 4 -15 2z"/>
<path d="M2180 5491 c0 -6 4 -13 10 -16 6 -3 7 1 4 9 -7 18 -14 21 -14 7z"/>
<path d="M2920 4665 c0 -2 6 -8 13 -14 10 -8 14 -7 14 2 0 8 -6 14 -14 14 -7
0 -13 -1 -13 -2z"/>
<path d="M1955 4630 c-3 -5 -1 -10 4 -10 6 0 11 5 11 10 0 6 -2 10 -4 10 -3 0
-8 -4 -11 -10z"/>
<path d="M2180 4340 c0 -5 5 -10 11 -10 5 0 7 5 4 10 -3 6 -8 10 -11 10 -2 0
-4 -4 -4 -10z"/>
<path d="M3090 4230 c8 -5 20 -10 25 -10 6 0 3 5 -5 10 -8 5 -19 10 -25 10 -5
0 -3 -5 5 -10z"/>
<path d="M2104 3772 c3 -5 0 -13 -6 -15 -9 -4 -10 -6 -1 -6 17 -1 25 16 12 25
-7 4 -9 3 -5 -4z"/>
<path d="M3760 3336 c0 -2 7 -7 16 -10 8 -3 12 -2 9 4 -6 10 -25 14 -25 6z"/>
<path d="M2827 3319 c7 -7 15 -10 18 -7 3 3 -2 9 -12 12 -14 6 -15 5 -6 -5z"/>
<path d="M3666 3274 c-5 -14 -4 -15 9 -4 17 14 19 20 6 20 -5 0 -12 -7 -15
-16z"/>
<path d="M3535 3210 c4 -6 11 -8 16 -5 14 9 11 15 -7 15 -8 0 -12 -5 -9 -10z"/>
<path d="M6861 3123 c-1 -17 16 -25 25 -12 4 7 3 9 -4 5 -5 -3 -13 0 -15 6 -4
9 -6 10 -6 1z"/>
<path d="M1896 3102 c-3 -5 1 -9 9 -9 8 0 12 4 9 9 -3 4 -7 8 -9 8 -2 0 -6 -4
-9 -8z"/>
<path d="M6550 3095 c0 -7 30 -13 34 -7 3 4 -4 9 -15 9 -10 1 -19 0 -19 -2z"/>
<path d="M4172 3072 c8 -9 14 -10 16 -3 2 6 9 8 15 4 7 -3 9 -2 4 2 -4 5 -16
9 -27 10 -16 1 -17 -1 -8 -13z"/>
<path d="M6926 3082 c-3 -5 1 -9 9 -9 8 0 12 4 9 9 -3 4 -7 8 -9 8 -2 0 -6 -4
-9 -8z"/>
<path d="M6466 3062 c-3 -5 1 -9 9 -9 8 0 12 4 9 9 -3 4 -7 8 -9 8 -2 0 -6 -4
-9 -8z"/>
<path d="M7655 3040 c-3 -5 -1 -10 4 -10 6 0 11 5 11 10 0 6 -2 10 -4 10 -3 0
-8 -4 -11 -10z"/>
<path d="M4295 3010 c3 -5 8 -10 11 -10 2 0 4 5 4 10 0 6 -5 10 -11 10 -5 0
-7 -4 -4 -10z"/>
<path d="M8635 3011 c-6 -11 13 -26 22 -17 4 3 1 6 -6 6 -7 0 -9 5 -6 10 3 6
4 10 1 10 -3 0 -7 -4 -11 -9z"/>
<path d="M1996 3002 c-3 -5 1 -9 9 -9 8 0 12 4 9 9 -3 4 -7 8 -9 8 -2 0 -6 -4
-9 -8z"/>
<path d="M2035 2949 c-4 -6 -4 -13 -1 -16 3 -4 6 -1 6 6 0 7 5 9 12 5 7 -4 8
-3 4 4 -9 15 -13 15 -21 1z"/>
<path d="M2096 2872 c-3 -5 1 -9 9 -9 8 0 12 4 9 9 -3 4 -7 8 -9 8 -2 0 -6 -4
-9 -8z"/>
<path d="M4734 2846 c1 -8 5 -18 8 -22 4 -3 5 1 4 10 -1 8 -5 18 -8 22 -4 3
-5 -1 -4 -10z"/>
<path d="M2115 2840 c3 -5 8 -10 11 -10 2 0 4 5 4 10 0 6 -5 10 -11 10 -5 0
-7 -4 -4 -10z"/>
<path d="M7414 2803 c2 -10 6 -17 10 -16 15 3 16 11 2 22 -12 10 -14 9 -12 -6z"/>
<path d="M5755 2790 c3 -5 8 -10 11 -10 2 0 4 5 4 10 0 6 -5 10 -11 10 -5 0
-7 -4 -4 -10z"/>
<path d="M8625 2789 c-11 -16 -1 -19 13 -3 7 8 8 14 3 14 -5 0 -13 -5 -16 -11z"/>
<path d="M2310 2610 c0 -5 5 -10 11 -10 5 0 7 5 4 10 -3 6 -8 10 -11 10 -2 0
-4 -4 -4 -10z"/>
<path d="M8315 2480 c3 -5 8 -10 11 -10 2 0 4 5 4 10 0 6 -5 10 -11 10 -5 0
-7 -4 -4 -10z"/>
<path d="M8185 2361 c-3 -5 -2 -12 3 -15 5 -3 9 1 9 9 0 17 -3 19 -12 6z"/>
<path d="M2520 2350 c-9 -6 -10 -10 -3 -10 6 0 15 5 18 10 8 12 4 12 -15 0z"/>
<path d="M4930 2346 c0 -2 7 -7 16 -10 8 -3 12 -2 9 4 -6 10 -25 14 -25 6z"/>
<path d="M3775 2309 c-4 -6 -5 -12 -2 -15 2 -3 7 2 10 11 7 17 1 20 -8 4z"/>
<path d="M4939 2276 c14 -15 26 -26 28 -26 9 0 -24 40 -37 45 -8 4 -4 -5 9
-19z"/>
<path d="M3833 2265 c0 -8 4 -12 9 -9 5 3 6 10 3 15 -9 13 -12 11 -12 -6z"/>
<path d="M5516 2272 c-3 -5 1 -9 9 -9 8 0 12 4 9 9 -3 4 -7 8 -9 8 -2 0 -6 -4
-9 -8z"/>
<path d="M8105 2269 c-4 -6 -5 -12 -2 -15 2 -3 7 2 10 11 7 17 1 20 -8 4z"/>
<path d="M3460 2210 c-8 -5 -12 -11 -10 -14 3 -2 14 2 24 10 22 15 10 19 -14
4z"/>
<path d="M7935 2100 c3 -5 8 -10 11 -10 2 0 4 5 4 10 0 6 -5 10 -11 10 -5 0
-7 -4 -4 -10z"/>
<path d="M4162 2050 c13 -20 28 -27 28 -12 0 4 -9 13 -20 20 -19 12 -20 11 -8
-8z"/>
<path d="M5303 1995 c0 -8 4 -12 9 -9 5 3 6 10 3 15 -9 13 -12 11 -12 -6z"/>
<path d="M5246 1989 c2 -4 13 -7 24 -6 23 2 17 10 -10 12 -10 1 -17 -2 -14 -6z"/>
<path d="M2896 1951 c-3 -5 1 -11 9 -14 9 -4 12 -1 8 9 -6 16 -10 17 -17 5z"/>
<path d="M4238 1733 c7 -3 16 -2 19 1 4 3 -2 6 -13 5 -11 0 -14 -3 -6 -6z"/>
<path d="M4330 1359 c0 -5 5 -7 10 -4 6 3 10 8 10 11 0 2 -4 4 -10 4 -5 0 -10
-5 -10 -11z"/>
<path d="M4720 1140 c-9 -6 -10 -10 -3 -10 6 0 15 5 18 10 8 12 4 12 -15 0z"/>
<path d="M4993 1125 c0 -8 4 -12 9 -9 4 3 8 9 8 15 0 5 -4 9 -8 9 -5 0 -9 -7
-9 -15z"/>
<path d="M5079 1122 c-13 -15 -12 -16 3 -4 13 10 17 10 21 0 4 -9 6 -9 6 -1 2
20 -16 24 -30 5z"/>
<path d="M5970 1099 c0 -5 5 -7 10 -4 6 3 10 8 10 11 0 2 -4 4 -10 4 -5 0 -10
-5 -10 -11z"/>
<path d="M5780 1095 c0 -2 6 -8 13 -14 10 -8 14 -7 14 2 0 8 -6 14 -14 14 -7
0 -13 -1 -13 -2z"/>
<path d="M5896 1087 c3 -10 9 -15 12 -12 3 3 0 11 -7 18 -10 9 -11 8 -5 -6z"/>
</g>
</svg>
